0
SECTION
2
ENTITIES
0
LINE
8
0
62
0
10
81.94393
20
15.051151
30
0
11
55.303402
21
49.627563
31
0
0
LINE
8
0
62
1
10
81.94393
20
15.051151
30
0
11
96.94395
21
76.78198
31
0
0
LINE
8
0
62
0
10
81.94393
20
15.051151
30
0
11
95.71983
21
28.047659
31
0
0
LINE
8
0
62
0
10
95.71983
20
28.047659
30
0
11
103.21983
21
58.913074
31
0
0
LINE
8
0
62
0
10
103.21983
20
58.913074
30
0
11
96.94395
21
76.78198
31
0
0
LINE
8
0
62
1
10
96.950645
20
76.78635
30
0
11
55.303402
21
49.627563
31
0
0
LINE
8
0
62
1
10
96.950645
20
76.78635
30
0
11
10.0
21
81.830536
31
0
0
LINE
8
0
62
0
10
96.950645
20
76.78635
30
0
11
75.81735
21
88.46536
31
0
0
LINE
8
0
62
0
10
75.81735
20
88.46536
30
0
11
32.342026
21
90.98746
31
0
0
LINE
8
0
62
0
10
32.342026
20
90.98746
30
0
11
10.0
21
81.830536
31
0
0
LINE
8
0
62
1
10
10.001968
20
81.82913
30
0
11
55.303402
21
49.627563
31
0
0
LINE
8
0
62
1
10
10.001968
20
81.82913
30
0
11
36.988678
21
10.0
31
0
0
LINE
8
0
62
0
10
10.001968
20
81.82913
30
0
11
7.028385
21
60.21988
31
0
0
LINE
8
0
62
0
10
7.028385
20
60.21988
30
0
11
20.52174
21
24.305313
31
0
0
LINE
8
0
62
0
10
20.52174
20
24.305313
30
0
11
36.988678
21
10.0
31
0
0
LINE
8
0
62
1
10
55.303402
20
49.627563
30
0
11
36.988678
21
10.0
31
0
0
LINE
8
0
62
0
10
36.988678
20
10.0
30
0
11
52.171116
21
19.014137
31
0
0
LINE
8
0
62
0
10
55.303402
20
49.627563
30
0
11
52.171116
21
19.014137
31
0
0
LINE
8
0
62
0
10
14.0
20
91.830536
30
0
11
6.0
21
91.830536
31
0
0
LINE
8
0
62
0
10
6.0
20
91.830536
30
0
11
6.0
21
99.830536
31
0
0
LINE
8
0
62
0
10
6.0
20
99.830536
30
0
11
14.0
21
99.830536
31
0
0
LINE
8
0
62
0
10
14.0
20
99.830536
30
0
11
14.0
21
91.830536
31
0
0
LINE
8
0
62
0
10
14.0
20
91.830536
30
0
11
6.0
21
99.830536
31
0
0
LINE
8
0
62
0
10
136.95065
20
33.653866
30
0
11
202.59805
21
68.6606
31
0
0
LINE
8
0
62
1
10
136.95065
20
33.653866
30
0
11
247.14307
21
10.0
31
0
0
LINE
8
0
62
0
10
136.95065
20
33.653866
30
0
11
162.28171
21
17.412163
31
0
0
LINE
8
0
62
0
10
162.28171
20
17.412163
30
0
11
217.3779
21
5.585228
31
0
0
LINE
8
0
62
0
10
217.3779
20
5.585228
30
0
11
247.14307
21
10.0
31
0
0
LINE
8
0
62
1
10
247.14067
20
10.003174
30
0
11
202.59805
21
68.6606
31
0
0
LINE
8
0
62
1
10
247.14067
20
10.003174
30
0
11
257.02716
21
109.66677
31
0
0
LINE
8
0
62
0
10
247.14067
20
10.003174
30
0
11
260.06177
21
33.8825
31
0
0
LINE
8
0
62
0
10
260.06177
20
33.8825
30
0
11
265.005
21
83.7143
31
0
0
LINE
8
0
62
0
10
265.005
20
83.7143
30
0
11
257.02716
21
109.66677
31
0
0
LINE
8
0
62
1
10
257.02768
20
109.667145
30
0
11
202.59805
21
68.6606
31
0
0
LINE
8
0
62
1
10
257.02768
20
109.667145
30
0
11
156.77863
21
127.270615
31
0
0
LINE
8
0
62
0
10
257.02768
20
109.667145
30
0
11
233.78294
21
124.418564
31
0
0
LINE
8
0
62
0
10
233.78294
20
124.418564
30
0
11
183.65842
21
133.2203
31
0
0
LINE
8
0
62
0
10
183.65842
20
133.2203
30
0
11
156.77863
21
127.270615
31
0
0
LINE
8
0
62
1
10
202.59805
20
68.6606
30
0
11
156.77863
21
127.270615
31
0
0
LINE
8
0
62
0
10
156.77863
20
127.270615
30
0
11
164.1738
21
101.57458
31
0
0
LINE
8
0
62
0
10
202.59805
20
68.6606
30
0
11
164.1738
21
101.57458
31
0
0
LINE
8
0
62
0
10
132.95065
20
139.27061
30
0
11
136.95065
21
137.27061
31
0
0
LINE
8
0
62
0
10
136.95065
20
137.27061
30
0
11
136.95065
21
145.27061
31
0
0
LINE
8
0
62
0
10
386.64548
20
30.69162
30
0
11
345.42102
21
60.212208
31
0
0
LINE
8
0
62
1
10
386.64548
20
30.69162
30
0
11
373.66467
21
92.999374
31
0
0
LINE
8
0
62
0
10
386.64548
20
30.69162
30
0
11
393.50162
21
48.373005
31
0
0
LINE
8
0
62
0
10
393.50162
20
48.373005
30
0
11
387.01123
21
79.526886
31
0
0
LINE
8
0
62
0
10
387.01123
20
79.526886
30
0
11
373.66467
21
92.999374
31
0
0
LINE
8
0
62
1
10
373.6687
20
93.00401
30
0
11
345.42102
21
60.212208
31
0
0
LINE
8
0
62
1
10
373.6687
20
93.00401
30
0
11
297.03015
21
89.23096
31
0
0
LINE
8
0
62
0
10
373.6687
20
93.00401
30
0
11
353.99847
21
102.431854
31
0
0
LINE
8
0
62
0
10
353.99847
20
102.431854
30
0
11
315.6792
21
100.54532
31
0
0
LINE
8
0
62
0
10
315.6792
20
100.54532
30
0
11
297.03015
21
89.23096
31
0
0
LINE
8
0
62
1
10
297.02768
20
89.23243
30
0
11
345.42102
21
60.212208
31
0
0
LINE
8
0
62
1
10
297.02768
20
89.23243
30
0
11
338.31424
21
10.0
31
0
0
LINE
8
0
62
0
10
297.02768
20
89.23243
30
0
11
298.08493
21
64.59682
31
0
0
LINE
8
0
62
0
10
298.08493
20
64.59682
30
0
11
318.7282
21
24.9806
31
0
0
LINE
8
0
62
0
10
318.7282
20
24.9806
30
0
11
338.31424
21
10.0
31
0
0
LINE
8
0
62
1
10
345.42102
20
60.212208
30
0
11
338.31424
21
10.0
31
0
0
LINE
8
0
62
0
10
338.31424
20
10.0
30
0
11
350.58453
21
25.33635
31
0
0
LINE
8
0
62
0
10
345.42102
20
60.212208
30
0
11
350.58453
21
25.33635
31
0
0
LINE
8
0
62
0
10
293.02768
20
103.00401
30
0
11
301.02768
21
103.00401
31
0
0
LINE
8
0
62
0
10
301.02768
20
103.00401
30
0
11
301.02768
21
105.00401
31
0
0
LINE
8
0
62
0
10
301.02768
20
105.00401
30
0
11
293.02768
21
111.00401
31
0
0
LINE
8
0
62
0
10
293.02768
20
111.00401
30
0
11
301.02768
21
111.00401
31
0
0
LINE
8
0
62
0
10
499.17233
20
18.10455
30
0
11
475.82385
21
44.50868
31
0
0
LINE
8
0
62
1
10
499.17233
20
18.10455
30
0
11
521.9608
21
50.70073
31
0
0
LINE
8
0
62
0
10
499.17233
20
18.10455
30
0
11
513.22815
21
20.409895
31
0
0
LINE
8
0
62
0
10
513.22815
20
20.409895
30
0
11
524.6224
21
36.707985
31
0
0
LINE
8
0
62
0
10
524.6224
20
36.707985
30
0
11
521.9608
21
50.70073
31
0
0
LINE
8
0
62
1
10
521.9786
20
50.703114
30
0
11
475.82385
21
44.50868
31
0
0
LINE
8
0
62
1
10
521.9786
20
50.703114
30
0
11
426.64545
21
86.359146
31
0
0
LINE
8
0
62
0
10
521.9786
20
50.703114
30
0
11
501.82672
21
69.460106
31
0
0
LINE
8
0
62
0
10
501.82672
20
69.460106
30
0
11
454.16016
21
87.288124
31
0
0
LINE
8
0
62
0
10
454.16016
20
87.288124
30
0
11
426.64545
21
86.359146
31
0
0
LINE
8
0
62
1
10
426.64618
20
86.35855
30
0
11
475.82385
21
44.50868
31
0
0
LINE
8
0
62
1
10
426.64618
20
86.35855
30
0
11
468.54163
21
10.0
31
0
0
LINE
8
0
62
0
10
426.64618
20
86.35855
30
0
11
427.97116
21
62.24922
31
0
0
LINE
8
0
62
0
10
427.97116
20
62.24922
30
0
11
448.91888
21
24.069944
31
0
0
LINE
8
0
62
0
10
448.91888
20
24.069944
30
0
11
468.54163
21
10.0
31
0
0
LINE
8
0
62
1
10
475.82385
20
44.50868
30
0
11
468.54163
21
10.0
31
0
0
LINE
8
0
62
0
10
468.54163
20
10.0
30
0
11
480.7536
21
19.438343
31
0
0
LINE
8
0
62
0
10
475.82385
20
44.50868
30
0
11
480.7536
21
19.438343
31
0
0
LINE
8
0
62
0
10
422.64545
20
96.359146
30
0
11
430.64545
21
96.359146
31
0
0
LINE
8
0
62
0
10
430.64545
20
96.359146
30
0
11
424.64545
21
100.359146
31
0
0
LINE
8
0
62
0
10
424.64545
20
100.359146
30
0
11
430.64545
21
100.359146
31
0
0
LINE
8
0
62
0
10
430.64545
20
100.359146
30
0
11
430.64545
21
104.359146
31
0
0
LINE
8
0
62
0
10
430.64545
20
104.359146
30
0
11
422.64545
21
104.359146
31
0
0
LINE
8
0
62
0
10
640.99896
20
10.389286
30
0
11
612.59546
21
53.64503
31
0
0
LINE
8
0
62
1
10
640.99896
20
10.389286
30
0
11
654.55664
21
107.600914
31
0
0
LINE
8
0
62
0
10
640.99896
20
10.389286
30
0
11
654.77856
21
33.243114
31
0
0
LINE
8
0
62
0
10
654.77856
20
33.243114
30
0
11
661.55743
21
81.84893
31
0
0
LINE
8
0
62
0
10
661.55743
20
81.84893
30
0
11
654.55664
21
107.600914
31
0
0
LINE
8
0
62
1
10
654.55676
20
107.60108
30
0
11
612.59546
21
53.64503
31
0
0
LINE
8
0
62
1
10
654.55676
20
107.60108
30
0
11
561.97864
21
69.39305
31
0
0
LINE
8
0
62
0
10
654.55676
20
107.60108
30
0
11
627.40625
21
107.75566
31
0
0
LINE
8
0
62
0
10
627.40625
20
107.75566
30
0
11
581.1171
21
88.65164
31
0
0
LINE
8
0
62
0
10
581.1171
20
88.65164
30
0
11
561.97864
21
69.39305
31
0
0
LINE
8
0
62
1
10
561.9838
20
69.39144
30
0
11
612.59546
21
53.64503
31
0
0
LINE
8
0
62
1
10
561.9838
20
69.39144
30
0
11
584.8038
21
10.0
31
0
0
LINE
8
0
62
0
10
561.9838
20
69.39144
30
0
11
558.0572
21
50.84283
31
0
0
LINE
8
0
62
0
10
558.0572
20
50.84283
30
0
11
569.46716
21
21.147106
31
0
0
LINE
8
0
62
0
10
569.46716
20
21.147106
30
0
11
584.8038
21
10.0
31
0
0
LINE
8
0
62
1
10
612.59546
20
53.64503
30
0
11
584.8038
21
10.0
31
0
0
LINE
8
0
62
0
10
584.8038
20
10.0
30
0
11
602.5029
21
19.177456
31
0
0
LINE
8
0
62
0
10
612.59546
20
53.64503
30
0
11
602.5029
21
19.177456
31
0
0
LINE
8
0
62
0
10
563.97864
20
125.601074
30
0
11
563.97864
21
117.601074
31
0
0
LINE
8
0
62
0
10
563.97864
20
117.601074
30
0
11
557.97864
21
121.601074
31
0
0
LINE
8
0
62
0
10
557.97864
20
121.601074
30
0
11
565.97864
21
121.601074
31
0
0
LINE
8
0
62
0
10
794.653
20
92.55349
30
0
11
755.7467
21
55.84127
31
0
0
LINE
8
0
62
1
10
794.653
20
92.55349
30
0
11
694.55676
21
78.99579
31
0
0
LINE
8
0
62
0
10
794.653
20
92.55349
30
0
11
768.219
21
99.57406
31
0
0
LINE
8
0
62
0
10
768.219
20
99.57406
30
0
11
718.17084
21
92.79521
31
0
0
LINE
8
0
62
0
10
718.17084
20
92.79521
30
0
11
694.55676
21
78.99579
31
0
0
LINE
8
0
62
1
10
694.55853
20
78.99513
30
0
11
755.7467
21
55.84127
31
0
0
LINE
8
0
62
1
10
694.55853
20
78.99513
30
0
11
751.3215
21
10.0
31
0
0
LINE
8
0
62
0
10
694.55853
20
78.99513
30
0
11
700.6819
21
55.109234
31
0
0
LINE
8
0
62
0
10
700.6819
20
55.109234
30
0
11
729.06335
21
20.611671
31
0
0
LINE
8
0
62
0
10
729.06335
20
20.611671
30
0
11
751.3215
21
10.0
31
0
0
LINE
8
0
62
1
10
751.32275
20
10.0134735
30
0
11
755.7467
21
55.84127
31
0
0
LINE
8
0
62
1
10
751.32275
20
10.0134735
30
0
11
805.91504
21
37.31742
31
0
0
LINE
8
0
62
0
10
751.32275
20
10.0134735
30
0
11
769.5805
21
7.622738
31
0
0
LINE
8
0
62
0
10
769.5805
20
7.622738
30
0
11
796.87665
21
21.274714
31
0
0
LINE
8
0
62
0
10
796.87665
20
21.274714
30
0
11
805.91504
21
37.31742
31
0
0
LINE
8
0
62
1
10
755.7467
20
55.84127
30
0
11
805.91504
21
37.31742
31
0
0
LINE
8
0
62
0
10
805.91504
20
37.31742
30
0
11
792.6557
21
52.873116
31
0
0
LINE
8
0
62
0
10
755.7467
20
55.84127
30
0
11
792.6557
21
52.873116
31
0
0
LINE
8
0
62
0
10
698.55676
20
102.55349
30
0
11
690.55676
21
102.55349
31
0
0
LINE
8
0
62
0
10
690.55676
20
102.55349
30
0
11
690.55676
21
106.55349
31
0
0
LINE
8
0
62
0
10
690.55676
20
106.55349
30
0
11
698.55676
21
106.55349
31
0
0
LINE
8
0
62
0
10
698.55676
20
106.55349
30
0
11
698.55676
21
110.55349
31
0
0
LINE
8
0
62
0
10
698.55676
20
110.55349
30
0
11
690.55676
21
110.55349
31
0
0
LINE
8
0
62
0
10
871.0927
20
10.0
30
0
11
863.0498
21
36.674397
31
0
0
LINE
8
0
62
1
10
871.0927
20
10.0
30
0
11
892.4389
21
32.21156
31
0
0
LINE
8
0
62
0
10
871.0927
20
10.0
30
0
11
883.7505
21
8.516945
31
0
0
LINE
8
0
62
0
10
883.7505
20
8.516945
30
0
11
894.4236
21
19.622723
31
0
0
LINE
8
0
62
0
10
894.4236
20
19.622723
30
0
11
892.4389
21
32.21156
31
0
0
LINE
8
0
62
1
10
892.44226
20
32.211063
30
0
11
863.0498
21
36.674397
31
0
0
LINE
8
0
62
1
10
892.44226
20
32.211063
30
0
11
845.91504
21
75.6082
31
0
0
LINE
8
0
62
0
10
892.44226
20
32.211063
30
0
11
887.84827
21
50.60575
31
0
0
LINE
8
0
62
0
10
887.84827
20
50.60575
30
0
11
864.58466
21
72.30432
31
0
0
LINE
8
0
62
0
10
864.58466
20
72.30432
30
0
11
845.91504
21
75.6082
31
0
0
LINE
8
0
62
1
10
845.9151
20
75.60803
30
0
11
863.0498
21
36.674397
31
0
0
LINE
8
0
62
1
10
845.9151
20
75.60803
30
0
11
846.0869
21
14.568775
31
0
0
LINE
8
0
62
0
10
845.9151
20
75.60803
30
0
11
835.6529
21
60.319218
31
0
0
LINE
8
0
62
0
10
835.6529
20
60.319218
30
0
11
835.7388
21
29.799587
31
0
0
LINE
8
0
62
0
10
835.7388
20
29.799587
30
0
11
846.0869
21
14.568775
31
0
0
LINE
8
0
62
1
10
863.0498
20
36.674397
30
0
11
846.0869
21
14.568775
31
0
0
LINE
8
0
62
0
10
846.0869
20
14.568775
30
0
11
859.67474
21
15.849701
31
0
0
LINE
8
0
62
0
10
863.0498
20
36.674397
30
0
11
859.67474
21
15.849701
31
0
0
LINE
8
0
62
0
10
849.91504
20
85.6082
30
0
11
841.91504
21
89.6082
31
0
0
LINE
8
0
62
0
10
841.91504
20
89.6082
30
0
11
841.91504
21
93.6082
31
0
0
LINE
8
0
62
0
10
841.91504
20
93.6082
30
0
11
849.91504
21
93.6082
31
0
0
LINE
8
0
62
0
10
849.91504
20
93.6082
30
0
11
849.91504
21
89.6082
31
0
0
LINE
8
0
62
0
10
849.91504
20
89.6082
30
0
11
841.91504
21
89.6082
31
0
0
LINE
8
0
62
0
10
932.44226
20
96.38054
30
0
11
993.70056
21
61.726364
31
0
0
LINE
8
0
62
1
10
932.44226
20
96.38054
30
0
11
950.03845
21
22.82277
31
0
0
LINE
8
0
62
0
10
932.44226
20
96.38054
30
0
11
926.7479
21
75.5766
31
0
0
LINE
8
0
62
0
10
926.7479
20
75.5766
30
0
11
935.546
21
38.797714
31
0
0
LINE
8
0
62
0
10
935.546
20
38.797714
30
0
11
950.03845
21
22.82277
31
0
0
LINE
8
0
62
1
10
950.02515
20
22.810944
30
0
11
993.70056
21
61.726364
31
0
0
LINE
8
0
62
1
10
950.02515
20
22.810944
30
0
11
1061.0651
21
10.001617
31
0
0
LINE
8
0
62
0
10
950.02515
20
22.810944
30
0
11
976.57513
21
9.119293
31
0
0
LINE
8
0
62
0
10
976.57513
20
9.119293
30
0
11
1032.0951
21
2.7146301
31
0
0
LINE
8
0
62
0
10
1032.0951
20
2.7146301
30
0
11
1061.0651
21
10.001617
31
0
0
LINE
8
0
62
1
10
1061.0671
20
10.0
30
0
11
993.70056
21
61.726364
31
0
0
LINE
8
0
62
1
10
1061.0671
20
10.0
30
0
11
1009.7745
21
130.26576
31
0
0
LINE
8
0
62
0
10
1061.0671
20
10.0
30
0
11
1058.0437
21
44.24595
31
0
0
LINE
8
0
62
0
10
1058.0437
20
44.24595
30
0
11
1032.3973
21
104.37883
31
0
0
LINE
8
0
62
0
10
1032.3973
20
104.37883
30
0
11
1009.7745
21
130.26576
31
0
0
LINE
8
0
62
1
10
993.70056
20
61.726364
30
0
11
1009.7745
21
130.26576
31
0
0
LINE
8
0
62
0
10
1009.7745
20
130.26576
30
0
11
994.68054
21
109.7021
31
0
0
LINE
8
0
62
0
10
993.70056
20
61.726364
30
0
11
994.68054
21
109.7021
31
0
0
LINE
8
0
62
0
10
928.44226
20
140.26576
30
0
11
936.44226
21
140.26576
31
0
0
LINE
8
0
62
0
10
936.44226
20
140.26576
30
0
11
928.44226
21
148.26576
31
0
0
LINE
8
0
62
0
10
0.0
20
170.26578
30
0
11
105.459625
21
252.23422
31
0
0
LINE
8
0
62
1
10
0.0
20
170.26578
30
0
11
214.32712
21
183.82349
31
0
0
LINE
8
0
62
0
10
0.0
20
170.26578
30
0
11
54.280876
21
162.60352
31
0
0
LINE
8
0
62
0
10
54.280876
20
162.60352
30
0
11
161.44443
21
169.38239
31
0
0
LINE
8
0
62
0
10
161.44443
20
169.38239
30
0
11
214.32712
21
183.82349
31
0
0
LINE
8
0
62
1
10
214.31718
20
183.82977
30
0
11
105.459625
21
252.23422
31
0
0
LINE
8
0
62
1
10
214.31718
20
183.82977
30
0
11
175.90195
21
308.80603
31
0
0
LINE
8
0
62
0
10
214.31718
20
183.82977
30
0
11
214.89688
21
218.20404
31
0
0
LINE
8
0
62
0
10
214.89688
20
218.20404
30
0
11
195.68927
21
280.69217
31
0
0
LINE
8
0
62
0
10
195.68927
20
280.69217
30
0
11
175.90195
21
308.80603
31
0
0
LINE
8
0
62
1
10
175.90666
20
308.80978
30
0
11
105.459625
21
252.23422
31
0
0
LINE
8
0
62
1
10
175.90666
20
308.80978
30
0
11
45.126404
21
371.3918
31
0
0
LINE
8
0
62
0
10
175.90666
20
308.80978
30
0
11
147.84102
21
334.1296
31
0
0
LINE
8
0
62
0
10
147.84102
20
334.1296
30
0
11
82.4509
21
365.42062
31
0
0
LINE
8
0
62
0
10
82.4509
20
365.42062
30
0
11
45.126404
21
371.3918
31
0
0
LINE
8
0
62
1
10
105.459625
20
252.23422
30
0
11
45.126404
21
371.3918
31
0
0
LINE
8
0
62
0
10
45.126404
20
371.3918
30
0
11
56.316315
21
327.15454
31
0
0
LINE
8
0
62
0
10
105.459625
20
252.23422
30
0
11
56.316315
21
327.15454
31
0
0
LINE
8
0
62
0
10
-4.0
20
381.3918
30
0
11
4.0
21
389.3918
31
0
0
LINE
8
0
62
0
10
4.0
20
389.3918
30
0
11
-4.0
21
389.3918
31
0
0
LINE
8
0
62
0
10
-4.0
20
389.3918
30
0
11
4.0
21
381.3918
31
0
0
LINE
8
0
62
0
10
4.0
20
381.3918
30
0
11
-4.0
21
381.3918
31
0
0
LINE
8
0
62
0
10
382.73734
20
209.93387
30
0
11
339.36023
21
204.4436
31
0
0
LINE
8
0
62
1
10
382.73734
20
209.93387
30
0
11
371.19888
21
265.0301
31
0
0
LINE
8
0
62
0
10
382.73734
20
209.93387
30
0
11
389.91586
21
225.81538
31
0
0
LINE
8
0
62
0
10
389.91586
20
225.81538
30
0
11
384.14664
21
253.3635
31
0
0
LINE
8
0
62
0
10
384.14664
20
253.3635
30
0
11
371.19888
21
265.0301
31
0
0
LINE
8
0
62
1
10
371.20764
20
265.04675
30
0
11
339.36023
21
204.4436
31
0
0
LINE
8
0
62
1
10
371.20764
20
265.04675
30
0
11
254.3271
21
179.26257
31
0
0
LINE
8
0
62
0
10
371.20764
20
265.04675
30
0
11
335.64172
21
252.2468
31
0
0
LINE
8
0
62
0
10
335.64172
20
252.2468
30
0
11
277.20145
21
209.3547
31
0
0
LINE
8
0
62
0
10
277.20145
20
209.3547
30
0
11
254.3271
21
179.26257
31
0
0
LINE
8
0
62
1
10
254.32855
20
179.26299
30
0
11
339.36023
21
204.4436
31
0
0
LINE
8
0
62
1
10
254.32855
20
179.26299
30
0
11
366.67145
21
170.26575
31
0
0
LINE
8
0
62
0
10
254.32855
20
179.26299
30
0
11
281.57098
21
166.48389
31
0
0
LINE
8
0
62
0
10
281.57098
20
166.48389
30
0
11
337.74243
21
161.98526
31
0
0
LINE
8
0
62
0
10
337.74243
20
161.98526
30
0
11
366.67145
21
170.26575
31
0
0
LINE
8
0
62
1
10
339.36023
20
204.4436
30
0
11
366.67145
21
170.26575
31
0
0
LINE
8
0
62
0
10
366.67145
20
170.26575
30
0
11
365.37967
21
187.90121
31
0
0
LINE
8
0
62
0
10
339.36023
20
204.4436
30
0
11
365.37967
21
187.90121
31
0
0
LINE
8
0
62
0
10
250.3271
20
283.04675
30
0
11
258.3271
21
279.04675
31
0
0
LINE
8
0
62
0
10
258.3271
20
279.04675
30
0
11
258.3271
21
275.04675
31
0
0
LINE
8
0
62
0
10
258.3271
20
275.04675
30
0
11
250.3271
21
275.04675
31
0
0
LINE
8
0
62
0
10
250.3271
20
275.04675
30
0
11
250.3271
21
279.04675
31
0
0
LINE
8
0
62
0
10
250.3271
20
279.04675
30
0
11
258.3271
21
279.04675
31
0
0
LINE
8
0
62
0
10
489.43036
20
170.26578
30
0
11
517.0367
21
260.70636
31
0
0
LINE
8
0
62
1
10
489.43036
20
170.26578
30
0
11
613.1805
21
286.22742
31
0
0
LINE
8
0
62
0
10
489.43036
20
170.26578
30
0
11
527.7854
21
191.34045
31
0
0
LINE
8
0
62
0
10
527.7854
20
191.34045
30
0
11
589.66046
21
249.32129
31
0
0
LINE
8
0
62
0
10
589.66046
20
249.32129
30
0
11
613.1805
21
286.22742
31
0
0
LINE
8
0
62
1
10
613.1732
20
286.2255
30
0
11
517.0367
21
260.70636
31
0
0
LINE
8
0
62
1
10
613.1732
20
286.2255
30
0
11
506.32248
21
319.0408
31
0
0
LINE
8
0
62
0
10
613.1732
20
286.2255
30
0
11
589.5604
21
304.52292
31
0
0
LINE
8
0
62
0
10
589.5604
20
304.52292
30
0
11
536.1351
21
320.93057
31
0
0
LINE
8
0
62
0
10
536.1351
20
320.93057
30
0
11
506.32248
21
319.0408
31
0
0
LINE
8
0
62
1
10
506.32318
20
319.0371
30
0
11
517.0367
21
260.70636
31
0
0
LINE
8
0
62
1
10
506.32318
20
319.0371
30
0
11
422.73737
21
267.58496
31
0
0
LINE
8
0
62
0
10
506.32318
20
319.0371
30
0
11
479.9274
21
315.1079
31
0
0
LINE
8
0
62
0
10
479.9274
20
315.1079
30
0
11
438.1345
21
289.38184
31
0
0
LINE
8
0
62
0
10
438.1345
20
289.38184
30
0
11
422.73737
21
267.58496
31
0
0
LINE
8
0
62
1
10
517.0367
20
260.70636
30
0
11
422.73737
21
267.58496
31
0
0
LINE
8
0
62
0
10
422.73737
20
267.58496
30
0
11
453.4436
21
255.31854
31
0
0
LINE
8
0
62
0
10
517.0367
20
260.70636
30
0
11
453.4436
21
255.31854
31
0
0
LINE
8
0
62
0
10
414.73737
20
331.0408
30
0
11
418.73737
21
329.0408
31
0
0
LINE
8
0
62
0
10
418.73737
20
329.0408
30
0
11
418.73737
21
337.0408
31
0
0
LINE
8
0
62
0
10
431.53738
20
329.0408
30
0
11
423.53738
21
329.0408
31
0
0
LINE
8
0
62
0
10
423.53738
20
329.0408
30
0
11
423.53738
21
337.0408
31
0
0
LINE
8
0
62
0
10
423.53738
20
337.0408
30
0
11
431.53738
21
337.0408
31
0
0
LINE
8
0
62
0
10
431.53738
20
337.0408
30
0
11
431.53738
21
329.0408
31
0
0
LINE
8
0
62
0
10
431.53738
20
329.0408
30
0
11
423.53738
21
337.0408
31
0
0
LINE
8
0
62
0
10
914.55896
20
323.78397
30
0
11
788.2754
21
296.21216
31
0
0
LINE
8
0
62
1
10
914.55896
20
323.78397
30
0
11
808.98193
21
407.72635
31
0
0
LINE
8
0
62
0
10
914.55896
20
323.78397
30
0
11
894.80786
21
353.12488
31
0
0
LINE
8
0
62
0
10
894.80786
20
353.12488
30
0
11
842.01935
21
395.09607
31
0
0
LINE
8
0
62
0
10
842.01935
20
395.09607
30
0
11
808.98193
21
407.72635
31
0
0
LINE
8
0
62
1
10
808.9842
20
407.73868
30
0
11
788.2754
21
296.21216
31
0
0
LINE
8
0
62
1
10
808.9842
20
407.73868
30
0
11
653.18384
21
340.75027
31
0
0
LINE
8
0
62
0
10
808.9842
20
407.73868
30
0
11
765.7492
21
400.9574
31
0
0
LINE
8
0
62
0
10
765.7492
20
400.9574
30
0
11
687.849
21
367.4632
31
0
0
LINE
8
0
62
0
10
687.849
20
367.4632
30
0
11
653.18384
21
340.75027
31
0
0
LINE
8
0
62
1
10
653.1804
20
340.7514
30
0
11
788.2754
21
296.21216
31
0
0
LINE
8
0
62
1
10
653.1804
20
340.7514
30
0
11
759.13574
21
170.26578
31
0
0
LINE
8
0
62
0
10
653.1804
20
340.7514
30
0
11
670.3235
21
292.3217
31
0
0
LINE
8
0
62
0
10
670.3235
20
292.3217
30
0
11
723.30115
21
207.07886
31
0
0
LINE
8
0
62
0
10
723.30115
20
207.07886
30
0
11
759.13574
21
170.26578
31
0
0
LINE
8
0
62
1
10
788.2754
20
296.21216
30
0
11
759.13574
21
170.26578
31
0
0
LINE
8
0
62
0
10
759.13574
20
170.26578
30
0
11
778.5918
21
209.99463
31
0
0
LINE
8
0
62
0
10
788.2754
20
296.21216
30
0
11
778.5918
21
209.99463
31
0
0
LINE
8
0
62
0
10
645.1804
20
419.73868
30
0
11
649.1804
21
417.73868
31
0
0
LINE
8
0
62
0
10
649.1804
20
417.73868
30
0
11
649.1804
21
425.73868
31
0
0
LINE
8
0
62
0
10
653.9804
20
419.73868
30
0
11
657.9804
21
417.73868
31
0
0
LINE
8
0
62
0
10
657.9804
20
417.73868
30
0
11
657.9804
21
425.73868
31
0
0
LINE
8
0
62
0
10
986.0824
20
170.26576
30
0
11
982.0501
21
283.10513
31
0
0
LINE
8
0
62
1
10
986.0824
20
170.26576
30
0
11
989.54395
21
238.63121
31
0
0
LINE
8
0
62
0
10
986.0824
20
170.26576
30
0
11
997.2768
21
186.83414
31
0
0
LINE
8
0
62
0
10
997.2768
20
186.83414
30
0
11
999.00757
21
221.01686
31
0
0
LINE
8
0
62
0
10
999.00757
20
221.01686
30
0
11
989.54395
21
238.63121
31
0
0
LINE
8
0
62
1
10
989.5439
20
238.63159
30
0
11
982.0501
21
283.10513
31
0
0
LINE
8
0
62
1
10
989.5439
20
238.63159
30
0
11
998.177
21
439.17422
31
0
0
LINE
8
0
62
0
10
989.5439
20
238.63159
30
0
11
1002.6956
21
288.29398
31
0
0
LINE
8
0
62
0
10
1002.6956
20
288.29398
30
0
11
1007.0122
21
388.5653
31
0
0
LINE
8
0
62
0
10
1007.0122
20
388.5653
30
0
11
998.177
21
439.17422
31
0
0
LINE
8
0
62
1
10
998.177
20
439.1742
30
0
11
982.0501
21
283.10513
31
0
0
LINE
8
0
62
1
10
998.177
20
439.1742
30
0
11
954.55896
21
173.59177
31
0
0
LINE
8
0
62
0
10
998.177
20
439.1742
30
0
11
976.0768
21
374.6173
31
0
0
LINE
8
0
62
0
10
976.0768
20
374.6173
30
0
11
954.26776
21
241.82611
31
0
0
LINE
8
0
62
0
10
954.26776
20
241.82611
30
0
11
954.55896
21
173.59177
31
0
0
LINE
8
0
62
1
10
982.0501
20
283.10513
30
0
11
954.55896
21
173.59177
31
0
0
LINE
8
0
62
0
10
954.55896
20
173.59177
30
0
11
973.4219
21
207.6622
31
0
0
LINE
8
0
62
0
10
982.0501
20
283.10513
30
0
11
973.4219
21
207.6622
31
0
0
LINE
8
0
62
0
10
946.55896
20
451.17426
30
0
11
950.55896
21
449.17426
31
0
0
LINE
8
0
62
0
10
950.55896
20
449.17426
30
0
11
950.55896
21
457.17426
31
0
0
LINE
8
0
62
0
10
955.35895
20
449.17426
30
0
11
963.35895
21
449.17426
31
0
0
LINE
8
0
62
0
10
963.35895
20
449.17426
30
0
11
963.35895
21
451.17426
31
0
0
LINE
8
0
62
0
10
963.35895
20
451.17426
30
0
11
955.35895
21
457.17426
31
0
0
LINE
8
0
62
0
10
955.35895
20
457.17426
30
0
11
963.35895
21
457.17426
31
0
0
LINE
8
0
62
0
10
1285.9817
20
235.08107
30
0
11
1167.1737
21
214.50385
31
0
0
LINE
8
0
62
1
10
1285.9817
20
235.08107
30
0
11
1174.924
21
235.65799
31
0
0
LINE
8
0
62
0
10
1285.9817
20
235.08107
30
0
11
1258.2721
21
245.78046
31
0
0
LINE
8
0
62
0
10
1258.2721
20
245.78046
30
0
11
1202.7432
21
246.06891
31
0
0
LINE
8
0
62
0
10
1202.7432
20
246.06891
30
0
11
1174.924
21
235.65799
31
0
0
LINE
8
0
62
1
10
1174.925
20
235.66093
30
0
11
1167.1737
21
214.50385
31
0
0
LINE
8
0
62
1
10
1174.925
20
235.66093
30
0
11
1038.1781
21
223.08511
31
0
0
LINE
8
0
62
0
10
1174.925
20
235.66093
30
0
11
1139.7596
21
243.15869
31
0
0
LINE
8
0
62
0
10
1139.7596
20
243.15869
30
0
11
1071.3862
21
236.87079
31
0
0
LINE
8
0
62
0
10
1071.3862
20
236.87079
30
0
11
1038.1781
21
223.08511
31
0
0
LINE
8
0
62
1
10
1038.177
20
223.08522
30
0
11
1167.1737
21
214.50385
31
0
0
LINE
8
0
62
1
10
1038.177
20
223.08522
30
0
11
1279.3441
21
170.26576
31
0
0
LINE
8
0
62
0
10
1038.177
20
223.08522
30
0
11
1096.0652
21
198.90607
31
0
0
LINE
8
0
62
0
10
1096.0652
20
198.90607
30
0
11
1216.6488
21
172.49634
31
0
0
LINE
8
0
62
0
10
1216.6488
20
172.49634
30
0
11
1279.3441
21
170.26576
31
0
0
LINE
8
0
62
1
10
1167.1737
20
214.50385
30
0
11
1279.3441
21
170.26576
31
0
0
LINE
8
0
62
0
10
1279.3441
20
170.26576
30
0
11
1245.6221
21
194.31476
31
0
0
LINE
8
0
62
0
10
1167.1737
20
214.50385
30
0
11
1245.6221
21
194.31476
31
0
0
LINE
8
0
62
0
10
1030.177
20
247.66093
30
0
11
1034.177
21
245.66093
31
0
0
LINE
8
0
62
0
10
1034.177
20
245.66093
30
0
11
1034.177
21
253.66093
31
0
0
LINE
8
0
62
0
10
1038.977
20
245.66093
30
0
11
1046.977
21
245.66093
31
0
0
LINE
8
0
62
0
10
1046.977
20
245.66093
30
0
11
1040.977
21
249.66093
31
0
0
LINE
8
0
62
0
10
1040.977
20
249.66093
30
0
11
1046.977
21
249.66093
31
0
0
LINE
8
0
62
0
10
1046.977
20
249.66093
30
0
11
1046.977
21
253.66093
31
0
0
LINE
8
0
62
0
10
1046.977
20
253.66093
30
0
11
1038.977
21
253.66093
31
0
0
LINE
8
0
62
0
10
1418.0603
20
204.59383
30
0
11
1360.9225
21
231.59486
31
0
0
LINE
8
0
62
1
10
1418.0603
20
204.59383
30
0
11
1352.5795
21
266.6131
31
0
0
LINE
8
0
62
0
10
1418.0603
20
204.59383
30
0
11
1408.8767
21
227.68642
31
0
0
LINE
8
0
62
0
10
1408.8767
20
227.68642
30
0
11
1376.1362
21
258.69604
31
0
0
LINE
8
0
62
0
10
1376.1362
20
258.69604
30
0
11
1352.5795
21
266.6131
31
0
0
LINE
8
0
62
1
10
1352.585
20
266.59
30
0
11
1360.9225
21
231.59486
31
0
0
LINE
8
0
62
1
10
1352.585
20
266.59
30
0
11
1326.0007
21
251.02425
31
0
0
LINE
8
0
62
0
10
1352.585
20
266.59
30
0
11
1340.8082
21
271.461
31
0
0
LINE
8
0
62
0
10
1340.8082
20
271.461
30
0
11
1327.5161
21
263.67816
31
0
0
LINE
8
0
62
0
10
1327.5161
20
263.67816
30
0
11
1326.0007
21
251.02425
31
0
0
LINE
8
0
62
1
10
1325.9817
20
251.0348
30
0
11
1360.9225
21
231.59486
31
0
0
LINE
8
0
62
1
10
1325.9817
20
251.0348
30
0
11
1376.172
21
170.26576
31
0
0
LINE
8
0
62
0
10
1325.9817
20
251.0348
30
0
11
1329.6318
21
225.31358
31
0
0
LINE
8
0
62
0
10
1329.6318
20
225.31358
30
0
11
1354.7269
21
184.92906
31
0
0
LINE
8
0
62
0
10
1354.7269
20
184.92906
30
0
11
1376.172
21
170.26576
31
0
0
LINE
8
0
62
1
10
1360.9225
20
231.59486
30
0
11
1376.172
21
170.26576
31
0
0
LINE
8
0
62
0
10
1376.172
20
170.26576
30
0
11
1380.7932
21
193.12224
31
0
0
LINE
8
0
62
0
10
1360.9225
20
231.59486
30
0
11
1380.7932
21
193.12224
31
0
0
LINE
8
0
62
0
10
1317.9817
20
278.6131
30
0
11
1321.9817
21
276.6131
31
0
0
LINE
8
0
62
0
10
1321.9817
20
276.6131
30
0
11
1321.9817
21
284.6131
31
0
0
LINE
8
0
62
0
10
1332.7817
20
284.6131
30
0
11
1332.7817
21
276.6131
31
0
0
LINE
8
0
62
0
10
1332.7817
20
276.6131
30
0
11
1326.7817
21
280.6131
31
0
0
LINE
8
0
62
0
10
1326.7817
20
280.6131
30
0
11
1334.7817
21
280.6131
31
0
0
LINE
8
0
62
0
10
1586.6361
20
237.89235
30
0
11
1531.2712
21
200.108
31
0
0
LINE
8
0
62
1
10
1586.6361
20
237.89235
30
0
11
1525.1937
21
237.60388
31
0
0
LINE
8
0
62
0
10
1586.6361
20
237.89235
30
0
11
1571.227
21
248.12733
31
0
0
LINE
8
0
62
0
10
1571.227
20
248.12733
30
0
11
1540.506
21
247.98311
31
0
0
LINE
8
0
62
0
10
1540.506
20
247.98311
30
0
11
1525.1937
21
237.60388
31
0
0
LINE
8
0
62
1
10
1525.191
20
237.62018
30
0
11
1531.2712
21
200.108
31
0
0
LINE
8
0
62
1
10
1525.191
20
237.62018
30
0
11
1458.0627
21
170.26677
31
0
0
LINE
8
0
62
0
10
1525.191
20
237.62018
30
0
11
1500.9894
21
228.1767
31
0
0
LINE
8
0
62
0
10
1500.9894
20
228.1767
30
0
11
1467.4252
21
194.5
31
0
0
LINE
8
0
62
0
10
1467.4252
20
194.5
30
0
11
1458.0627
21
170.26677
31
0
0
LINE
8
0
62
1
10
1458.0602
20
170.26576
30
0
11
1531.2712
21
200.108
31
0
0
LINE
8
0
62
1
10
1458.0602
20
170.26576
30
0
11
1592.8971
21
173.70995
31
0
0
LINE
8
0
62
0
10
1458.0602
20
170.26576
30
0
11
1492.042
21
160.45587
31
0
0
LINE
8
0
62
0
10
1492.042
20
160.45587
30
0
11
1559.4604
21
162.17798
31
0
0
LINE
8
0
62
0
10
1559.4604
20
162.17798
30
0
11
1592.8971
21
173.70995
31
0
0
LINE
8
0
62
1
10
1531.2712
20
200.108
30
0
11
1592.8971
21
173.70995
31
0
0
LINE
8
0
62
0
10
1592.8971
20
173.70995
30
0
11
1576.2922
21
191.70163
31
0
0
LINE
8
0
62
0
10
1531.2712
20
200.108
30
0
11
1576.2922
21
191.70163
31
0
0
LINE
8
0
62
0
10
1450.0602
20
249.89235
30
0
11
1454.0602
21
247.89235
31
0
0
LINE
8
0
62
0
10
1454.0602
20
247.89235
30
0
11
1454.0602
21
255.89235
31
0
0
LINE
8
0
62
0
10
1466.8602
20
247.89235
30
0
11
1458.8602
21
247.89235
31
0
0
LINE
8
0
62
0
10
1458.8602
20
247.89235
30
0
11
1458.8602
21
251.89235
31
0
0
LINE
8
0
62
0
10
1458.8602
20
251.89235
30
0
11
1466.8602
21
251.89235
31
0
0
LINE
8
0
62
0
10
1466.8602
20
251.89235
30
0
11
1466.8602
21
255.89235
31
0
0
LINE
8
0
62
0
10
1466.8602
20
255.89235
30
0
11
1458.8602
21
255.89235
31
0
0
LINE
8
0
62
0
10
54.555008
20
479.98196
30
0
11
27.168232
21
525.9293
31
0
0
LINE
8
0
62
1
10
54.555008
20
479.98196
30
0
11
58.01655
21
548.3474
31
0
0
LINE
8
0
62
0
10
54.555008
20
479.98196
30
0
11
65.74942
21
496.55035
31
0
0
LINE
8
0
62
0
10
65.74942
20
496.55035
30
0
11
67.480194
21
530.73303
31
0
0
LINE
8
0
62
0
10
67.480194
20
530.73303
30
0
11
58.01655
21
548.3474
31
0
0
LINE
8
0
62
1
10
58.015724
20
548.3468
30
0
11
27.168232
21
525.9293
31
0
0
LINE
8
0
62
1
10
58.015724
20
548.3468
30
0
11
0.001625061
21
568.5857
31
0
0
LINE
8
0
62
0
10
58.015724
20
548.3468
30
0
11
46.907314
21
563.13855
31
0
0
LINE
8
0
62
0
10
46.907314
20
563.13855
30
0
11
17.900269
21
573.25793
31
0
0
LINE
8
0
62
0
10
17.900269
20
573.25793
30
0
11
0.001625061
21
568.5857
31
0
0
LINE
8
0
62
1
10
0.0
20
568.5882
30
0
11
27.168232
21
525.9293
31
0
0
LINE
8
0
62
1
10
0.0
20
568.5882
30
0
11
1.1800919
21
479.17426
31
0
0
LINE
8
0
62
0
10
0.0
20
568.5882
30
0
11
-10.15118
21
546.09686
31
0
0
LINE
8
0
62
0
10
-10.15118
20
546.09686
30
0
11
-9.561131
21
501.38986
31
0
0
LINE
8
0
62
0
10
-9.561131
20
501.38986
30
0
11
1.1800919
21
479.17426
31
0
0
LINE
8
0
62
1
10
27.168232
20
525.9293
30
0
11
1.1800919
21
479.17426
31
0
0
LINE
8
0
62
0
10
1.1800919
20
479.17426
30
0
11
18.58351
21
489.90128
31
0
0
LINE
8
0
62
0
10
27.168232
20
525.9293
30
0
11
18.58351
21
489.90128
31
0
0
LINE
8
0
62
0
10
-8.0
20
580.5882
30
0
11
-4.0
21
578.5882
31
0
0
LINE
8
0
62
0
10
-4.0
20
578.5882
30
0
11
-4.0
21
586.5882
31
0
0
LINE
8
0
62
0
10
8.799999
20
578.5882
30
0
11
0.79999924
21
582.5882
31
0
0
LINE
8
0
62
0
10
0.79999924
20
582.5882
30
0
11
0.79999924
21
586.5882
31
0
0
LINE
8
0
62
0
10
0.79999924
20
586.5882
30
0
11
8.799999
21
586.5882
31
0
0
LINE
8
0
62
0
10
8.799999
20
586.5882
30
0
11
8.799999
21
582.5882
31
0
0
LINE
8
0
62
0
10
8.799999
20
582.5882
30
0
11
0.79999924
21
582.5882
31
0
0
LINE
8
0
62
0
10
209.07434
20
562.20087
30
0
11
152.4045
21
522.7855
31
0
0
LINE
8
0
62
1
10
209.07434
20
562.20087
30
0
11
98.01654
21
562.7778
31
0
0
LINE
8
0
62
0
10
209.07434
20
562.20087
30
0
11
181.36472
21
572.9002
31
0
0
LINE
8
0
62
0
10
181.36472
20
572.9002
30
0
11
125.83582
21
573.18866
31
0
0
LINE
8
0
62
0
10
125.83582
20
573.18866
30
0
11
98.01654
21
562.7778
31
0
0
LINE
8
0
62
1
10
98.02233
20
562.77356
30
0
11
152.4045
21
522.7855
31
0
0
LINE
8
0
62
1
10
98.02233
20
562.77356
30
0
11
117.63874
21
479.17557
31
0
0
LINE
8
0
62
0
10
98.02233
20
562.77356
30
0
11
92.77287
21
539.4915
31
0
0
LINE
8
0
62
0
10
92.77287
20
539.4915
30
0
11
102.581085
21
497.6925
31
0
0
LINE
8
0
62
0
10
102.581085
20
497.6925
30
0
11
117.63874
21
479.17557
31
0
0
LINE
8
0
62
1
10
117.637695
20
479.17426
30
0
11
152.4045
21
522.7855
31
0
0
LINE
8
0
62
1
10
117.637695
20
479.17426
30
0
11
207.04785
21
480.61493
31
0
0
LINE
8
0
62
0
10
117.637695
20
479.17426
30
0
11
140.15854
21
469.08868
31
0
0
LINE
8
0
62
0
10
140.15854
20
469.08868
30
0
11
184.86362
21
469.80902
31
0
0
LINE
8
0
62
0
10
184.86362
20
469.80902
30
0
11
207.04785
21
480.61493
31
0
0
LINE
8
0
62
1
10
152.4045
20
522.7855
30
0
11
207.04785
21
480.61493
31
0
0
LINE
8
0
62
0
10
207.04785
20
480.61493
30
0
11
194.94263
21
502.5887
31
0
0
LINE
8
0
62
0
10
152.4045
20
522.7855
30
0
11
194.94263
21
502.5887
31
0
0
LINE
8
0
62
0
10
90.01654
20
574.7778
30
0
11
94.01654
21
572.7778
31
0
0
LINE
8
0
62
0
10
94.01654
20
572.7778
30
0
11
94.01654
21
580.7778
31
0
0
LINE
8
0
62
0
10
98.81654
20
572.7778
30
0
11
106.81654
21
572.7778
31
0
0
LINE
8
0
62
0
10
106.81654
20
572.7778
30
0
11
98.81654
21
580.7778
31
0
0
LINE
8
0
62
0
10
285.7493
20
479.17422
30
0
11
297.84128
21
529.994
31
0
0
LINE
8
0
62
1
10
285.7493
20
479.17422
30
0
11
338.8263
21
546.6743
31
0
0
LINE
8
0
62
0
10
285.7493
20
479.17422
30
0
11
307.21692
21
489.6027
31
0
0
LINE
8
0
62
0
10
307.21692
20
489.6027
30
0
11
333.7554
21
523.3527
31
0
0
LINE
8
0
62
0
10
333.7554
20
523.3527
30
0
11
338.8263
21
546.6743
31
0
0
LINE
8
0
62
1
10
338.82288
20
546.6729
30
0
11
297.84128
21
529.994
31
0
0
LINE
8
0
62
1
10
338.82288
20
546.6729
30
0
11
293.94485
21
561.6418
31
0
0
LINE
8
0
62
0
10
338.82288
20
546.6729
30
0
11
330.84232
21
560.12573
31
0
0
LINE
8
0
62
0
10
330.84232
20
560.12573
30
0
11
308.4033
21
567.61017
31
0
0
LINE
8
0
62
0
10
308.4033
20
567.61017
30
0
11
293.94485
21
561.6418
31
0
0
LINE
8
0
62
1
10
293.94452
20
561.6445
30
0
11
297.84128
21
529.994
31
0
0
LINE
8
0
62
1
10
293.94452
20
561.6445
30
0
11
249.07436
21
511.27237
31
0
0
LINE
8
0
62
0
10
293.94452
20
561.6445
30
0
11
275.00803
21
555.9273
31
0
0
LINE
8
0
62
0
10
275.00803
20
555.9273
30
0
11
252.57294
21
530.7413
31
0
0
LINE
8
0
62
0
10
252.57294
20
530.7413
30
0
11
249.07436
21
511.27237
31
0
0
LINE
8
0
62
1
10
297.84128
20
529.994
30
0
11
249.07436
21
511.27237
31
0
0
LINE
8
0
62
0
10
249.07436
20
511.27237
30
0
11
268.9143
21
508.17734
31
0
0
LINE
8
0
62
0
10
297.84128
20
529.994
30
0
11
268.9143
21
508.17734
31
0
0
LINE
8
0
62
0
10
241.07436
20
573.6445
30
0
11
245.07436
21
571.6445
31
0
0
LINE
8
0
62
0
10
245.07436
20
571.6445
30
0
11
245.07436
21
579.6445
31
0
0
LINE
8
0
62
0
10
249.87436
20
571.6445
30
0
11
257.87436
21
579.6445
31
0
0
LINE
8
0
62
0
10
257.87436
20
579.6445
30
0
11
249.87436
21
579.6445
31
0
0
LINE
8
0
62
0
10
249.87436
20
579.6445
30
0
11
257.87436
21
571.6445
31
0
0
LINE
8
0
62
0
10
257.87436
20
571.6445
30
0
11
249.87436
21
571.6445
31
0
0
LINE
8
0
62
0
10
461.29578
20
534.0135
30
0
11
423.99167
21
506.69104
31
0
0
LINE
8
0
62
1
10
461.29578
20
534.0135
30
0
11
413.98807
21
533.72504
31
0
0
LINE
8
0
62
0
10
461.29578
20
534.0135
30
0
11
449.40643
21
544.17773
31
0
0
LINE
8
0
62
0
10
449.40643
20
544.17773
30
0
11
425.75256
21
544.0335
31
0
0
LINE
8
0
62
0
10
425.75256
20
544.0335
30
0
11
413.98807
21
533.72504
31
0
0
LINE
8
0
62
1
10
413.98486
20
533.73364
30
0
11
423.99167
21
506.69104
31
0
0
LINE
8
0
62
1
10
413.98486
20
533.73364
30
0
11
378.82874
21
479.17578
31
0
0
LINE
8
0
62
0
10
413.98486
20
533.73364
30
0
11
396.5171
21
525.6866
31
0
0
LINE
8
0
62
0
10
396.5171
20
525.6866
30
0
11
378.93903
21
498.40765
31
0
0
LINE
8
0
62
0
10
378.93903
20
498.40765
30
0
11
378.82874
21
479.17578
31
0
0
LINE
8
0
62
1
10
378.82626
20
479.17426
30
0
11
423.99167
21
506.69104
31
0
0
LINE
8
0
62
1
10
378.82626
20
479.17426
30
0
11
468.0206
21
492.53458
31
0
0
LINE
8
0
62
0
10
378.82626
20
479.17426
30
0
11
402.673
21
472.17868
31
0
0
LINE
8
0
62
0
10
402.673
20
472.17868
30
0
11
447.27017
21
478.85886
31
0
0
LINE
8
0
62
0
10
447.27017
20
478.85886
30
0
11
468.0206
21
492.53458
31
0
0
LINE
8
0
62
1
10
423.99167
20
506.69104
30
0
11
468.0206
21
492.53458
31
0
0
LINE
8
0
62
0
10
468.0206
20
492.53458
30
0
11
456.40494
21
506.7735
31
0
0
LINE
8
0
62
0
10
423.99167
20
506.69104
30
0
11
456.40494
21
506.7735
31
0
0
LINE
8
0
62
0
10
370.82626
20
546.0135
30
0
11
374.82626
21
544.0135
31
0
0
LINE
8
0
62
0
10
374.82626
20
544.0135
30
0
11
374.82626
21
552.0135
31
0
0
LINE
8
0
62
0
10
379.62625
20
552.0135
30
0
11
387.62625
21
548.0135
31
0
0
LINE
8
0
62
0
10
387.62625
20
548.0135
30
0
11
387.62625
21
544.0135
31
0
0
LINE
8
0
62
0
10
387.62625
20
544.0135
30
0
11
379.62625
21
544.0135
31
0
0
LINE
8
0
62
0
10
379.62625
20
544.0135
30
0
11
379.62625
21
548.0135
31
0
0
LINE
8
0
62
0
10
379.62625
20
548.0135
30
0
11
387.62625
21
548.0135
31
0
0
LINE
8
0
62
0
10
642.1554
20
565.5014
30
0
11
567.24316
21
518.5963
31
0
0
LINE
8
0
62
1
10
642.1554
20
565.5014
30
0
11
508.02063
21
536.0783
31
0
0
LINE
8
0
62
0
10
642.1554
20
565.5014
30
0
11
606.332
21
568.5841
31
0
0
LINE
8
0
62
0
10
606.332
20
568.5841
30
0
11
539.2646
21
553.8725
31
0
0
LINE
8
0
62
0
10
539.2646
20
553.8725
30
0
11
508.02063
21
536.0783
31
0
0
LINE
8
0
62
1
10
508.04596
20
536.07086
30
0
11
567.24316
21
518.5963
31
0
0
LINE
8
0
62
1
10
508.04596
20
536.07086
30
0
11
527.40656
21
491.96796
31
0
0
LINE
8
0
62
0
10
508.04596
20
536.07086
30
0
11
503.50903
21
520.9287
31
0
0
LINE
8
0
62
0
10
503.50903
20
520.9287
30
0
11
513.18933
21
498.87726
31
0
0
LINE
8
0
62
0
10
513.18933
20
498.87726
30
0
11
527.40656
21
491.96796
31
0
0
LINE
8
0
62
1
10
527.3795
20
491.94983
30
0
11
567.24316
21
518.5963
31
0
0
LINE
8
0
62
1
10
527.3795
20
491.94983
30
0
11
646.34875
21
479.17426
31
0
0
LINE
8
0
62
0
10
527.3795
20
491.94983
30
0
11
555.99023
21
478.21826
31
0
0
LINE
8
0
62
0
10
555.99023
20
478.21826
30
0
11
615.47485
21
471.83044
31
0
0
LINE
8
0
62
0
10
615.47485
20
471.83044
30
0
11
646.34875
21
479.17426
31
0
0
LINE
8
0
62
1
10
567.24316
20
518.5963
30
0
11
646.34875
21
479.17426
31
0
0
LINE
8
0
62
0
10
646.34875
20
479.17426
30
0
11
624.44
21
501.26538
31
0
0
LINE
8
0
62
0
10
567.24316
20
518.5963
30
0
11
624.44
21
501.26538
31
0
0
LINE
8
0
62
0
10
500.02063
20
575.5014
30
0
11
508.02063
21
575.5014
31
0
0
LINE
8
0
62
0
10
508.02063
20
575.5014
30
0
11
508.02063
21
577.5014
31
0
0
LINE
8
0
62
0
10
508.02063
20
577.5014
30
0
11
500.02063
21
583.5014
31
0
0
LINE
8
0
62
0
10
500.02063
20
583.5014
30
0
11
508.02063
21
583.5014
31
0
0
LINE
8
0
62
0
10
516.8206
20
575.5014
30
0
11
508.82062
21
575.5014
31
0
0
LINE
8
0
62
0
10
508.82062
20
575.5014
30
0
11
508.82062
21
583.5014
31
0
0
LINE
8
0
62
0
10
508.82062
20
583.5014
30
0
11
516.8206
21
583.5014
31
0
0
LINE
8
0
62
0
10
516.8206
20
583.5014
30
0
11
516.8206
21
575.5014
31
0
0
LINE
8
0
62
0
10
516.8206
20
575.5014
30
0
11
508.82062
21
583.5014
31
0
0
LINE
8
0
62
0
10
734.81104
20
580.168
30
0
11
731.10455
21
530.7159
31
0
0
LINE
8
0
62
1
10
734.81104
20
580.168
30
0
11
686.3494
21
532.2833
31
0
0
LINE
8
0
62
0
10
734.81104
20
580.168
30
0
11
715.4276
21
575.5524
31
0
0
LINE
8
0
62
0
10
715.4276
20
575.5524
30
0
11
691.1968
21
551.6101
31
0
0
LINE
8
0
62
0
10
691.1968
20
551.6101
30
0
11
686.3494
21
532.2833
31
0
0
LINE
8
0
62
1
10
686.34875
20
532.2834
30
0
11
731.10455
21
530.7159
31
0
0
LINE
8
0
62
1
10
686.34875
20
532.2834
30
0
11
736.2738
21
479.17532
31
0
0
LINE
8
0
62
0
10
686.34875
20
532.2834
30
0
11
691.27844
21
511.90738
31
0
0
LINE
8
0
62
0
10
691.27844
20
511.90738
30
0
11
716.24097
21
485.35336
31
0
0
LINE
8
0
62
0
10
716.24097
20
485.35336
30
0
11
736.2738
21
479.17532
31
0
0
LINE
8
0
62
1
10
736.27386
20
479.1743
30
0
11
731.10455
21
530.7159
31
0
0
LINE
8
0
62
1
10
736.27386
20
479.1743
30
0
11
776.7306
21
550.14996
31
0
0
LINE
8
0
62
0
10
736.27386
20
479.1743
30
0
11
755.43066
21
491.76382
31
0
0
LINE
8
0
62
0
10
755.43066
20
491.76382
30
0
11
775.65906
21
527.25165
31
0
0
LINE
8
0
62
0
10
775.65906
20
527.25165
30
0
11
776.7306
21
550.14996
31
0
0
LINE
8
0
62
1
10
731.10455
20
530.7159
30
0
11
776.7306
21
550.14996
31
0
0
LINE
8
0
62
0
10
776.7306
20
550.14996
30
0
11
757.60284
21
552.87195
31
0
0
LINE
8
0
62
0
10
731.10455
20
530.7159
30
0
11
757.60284
21
552.87195
31
0
0
LINE
8
0
62
0
10
678.34875
20
590.168
30
0
11
686.34875
21
590.168
31
0
0
LINE
8
0
62
0
10
686.34875
20
590.168
30
0
11
686.34875
21
592.168
31
0
0
LINE
8
0
62
0
10
686.34875
20
592.168
30
0
11
678.34875
21
598.16797
31
0
0
LINE
8
0
62
0
10
678.34875
20
598.16797
30
0
11
686.34875
21
598.16797
31
0
0
LINE
8
0
62
0
10
687.14874
20
592.168
30
0
11
691.14874
21
590.168
31
0
0
LINE
8
0
62
0
10
691.14874
20
590.168
30
0
11
691.14874
21
598.16797
31
0
0
LINE
8
0
62
0
10
816.7306
20
547.5397
30
0
11
854.8158
21
516.96545
31
0
0
LINE
8
0
62
1
10
816.7306
20
547.5397
30
0
11
839.5191
21
479.17422
31
0
0
LINE
8
0
62
0
10
816.7306
20
547.5397
30
0
11
812.59906
21
527.1721
31
0
0
LINE
8
0
62
0
10
812.59906
20
527.1721
30
0
11
823.99335
21
492.98938
31
0
0
LINE
8
0
62
0
10
823.99335
20
492.98938
30
0
11
839.5191
21
479.17422
31
0
0
LINE
8
0
62
1
10
839.51984
20
479.17606
30
0
11
854.8158
21
516.96545
31
0
0
LINE
8
0
62
1
10
839.51984
20
479.17606
30
0
11
891.9609
21
499.01578
31
0
0
LINE
8
0
62
0
10
839.51984
20
479.17606
30
0
11
856.26776
21
474.52075
31
0
0
LINE
8
0
62
0
10
856.26776
20
474.52075
30
0
11
882.4883
21
484.4406
31
0
0
LINE
8
0
62
0
10
882.4883
20
484.4406
30
0
11
891.9609
21
499.01578
31
0
0
LINE
8
0
62
1
10
891.96277
20
499.0149
30
0
11
854.8158
21
516.96545
31
0
0
LINE
8
0
62
1
10
891.96277
20
499.0149
30
0
11
861.6854
21
565.31915
31
0
0
LINE
8
0
62
0
10
891.96277
20
499.0149
30
0
11
893.8214
21
519.8962
31
0
0
LINE
8
0
62
0
10
893.8214
20
519.8962
30
0
11
878.68274
21
553.04834
31
0
0
LINE
8
0
62
0
10
878.68274
20
553.04834
30
0
11
861.6854
21
565.31915
31
0
0
LINE
8
0
62
1
10
854.8158
20
516.96545
30
0
11
861.6854
21
565.31915
31
0
0
LINE
8
0
62
0
10
861.6854
20
565.31915
30
0
11
849.49493
21
550.60754
31
0
0
LINE
8
0
62
0
10
854.8158
20
516.96545
30
0
11
849.49493
21
550.60754
31
0
0
LINE
8
0
62
0
10
808.7306
20
575.31915
30
0
11
816.7306
21
575.31915
31
0
0
LINE
8
0
62
0
10
816.7306
20
575.31915
30
0
11
816.7306
21
577.31915
31
0
0
LINE
8
0
62
0
10
816.7306
20
577.31915
30
0
11
808.7306
21
583.31915
31
0
0
LINE
8
0
62
0
10
808.7306
20
583.31915
30
0
11
816.7306
21
583.31915
31
0
0
LINE
8
0
62
0
10
817.53064
20
575.31915
30
0
11
825.53064
21
575.31915
31
0
0
LINE
8
0
62
0
10
825.53064
20
575.31915
30
0
11
825.53064
21
577.31915
31
0
0
LINE
8
0
62
0
10
825.53064
20
577.31915
30
0
11
817.53064
21
583.31915
31
0
0
LINE
8
0
62
0
10
817.53064
20
583.31915
30
0
11
825.53064
21
583.31915
31
0
0
LINE
8
0
62
0
10
931.9627
20
488.4076
30
0
11
956.5367
21
501.27863
31
0
0
LINE
8
0
62
1
10
931.9627
20
488.4076
30
0
11
959.0781
21
479.17682
31
0
0
LINE
8
0
62
0
10
931.9627
20
488.4076
30
0
11
935.4728
21
476.4978
31
0
0
LINE
8
0
62
0
10
935.4728
20
476.4978
30
0
11
949.03046
21
471.88242
31
0
0
LINE
8
0
62
0
10
949.03046
20
471.88242
30
0
11
959.0781
21
479.17682
31
0
0
LINE
8
0
62
1
10
959.0784
20
479.17426
30
0
11
956.5367
21
501.27863
31
0
0
LINE
8
0
62
1
10
959.0784
20
479.17426
30
0
11
988.265
21
517.48926
31
0
0
LINE
8
0
62
0
10
959.0784
20
479.17426
30
0
11
974.52155
21
482.5474
31
0
0
LINE
8
0
62
0
10
974.52155
20
482.5474
30
0
11
989.1148
21
501.70493
31
0
0
LINE
8
0
62
0
10
989.1148
20
501.70493
30
0
11
988.265
21
517.48926
31
0
0
LINE
8
0
62
1
10
988.26556
20
517.48956
30
0
11
956.5367
21
501.27863
31
0
0
LINE
8
0
62
1
10
988.26556
20
517.48956
30
0
11
932.26556
21
514.71796
31
0
0
LINE
8
0
62
0
10
988.26556
20
517.48956
30
0
11
973.7574
21
527.06445
31
0
0
LINE
8
0
62
0
10
973.7574
20
527.06445
30
0
11
945.7574
21
525.67865
31
0
0
LINE
8
0
62
0
10
945.7574
20
525.67865
30
0
11
932.26556
21
514.71796
31
0
0
LINE
8
0
62
1
10
956.5367
20
501.27863
30
0
11
932.26556
21
514.71796
31
0
0
LINE
8
0
62
0
10
932.26556
20
514.71796
30
0
11
935.51196
21
501.4897
31
0
0
LINE
8
0
62
0
10
956.5367
20
501.27863
30
0
11
935.51196
21
501.4897
31
0
0
LINE
8
0
62
0
10
923.9627
20
527.48956
30
0
11
931.9627
21
527.48956
31
0
0
LINE
8
0
62
0
10
931.9627
20
527.48956
30
0
11
931.9627
21
529.48956
31
0
0
LINE
8
0
62
0
10
931.9627
20
529.48956
30
0
11
923.9627
21
535.48956
31
0
0
LINE
8
0
62
0
10
923.9627
20
535.48956
30
0
11
931.9627
21
535.48956
31
0
0
LINE
8
0
62
0
10
932.7627
20
527.48956
30
0
11
940.7627
21
527.48956
31
0
0
LINE
8
0
62
0
10
940.7627
20
527.48956
30
0
11
934.7627
21
531.48956
31
0
0
LINE
8
0
62
0
10
934.7627
20
531.48956
30
0
11
940.7627
21
531.48956
31
0
0
LINE
8
0
62
0
10
940.7627
20
531.48956
30
0
11
940.7627
21
535.48956
31
0
0
LINE
8
0
62
0
10
940.7627
20
535.48956
30
0
11
932.7627
21
535.48956
31
0
0
LINE
8
0
62
0
10
0.0
20
700.072
30
0
11
41.534557
21
669.548
31
0
0
LINE
8
0
62
1
10
0.0
20
700.072
30
0
11
17.019241
21
620.1681
31
0
0
LINE
8
0
62
0
10
0.0
20
700.072
30
0
11
-5.925308
21
677.9277
31
0
0
LINE
8
0
62
0
10
-5.925308
20
677.9277
30
0
11
2.5843124
21
637.9757
31
0
0
LINE
8
0
62
0
10
2.5843124
20
637.9757
30
0
11
17.019241
21
620.1681
31
0
0
LINE
8
0
62
1
10
17.019182
20
620.16797
30
0
11
41.534557
21
669.548
31
0
0
LINE
8
0
62
1
10
17.019182
20
620.16797
30
0
11
91.70734
21
655.636
31
0
0
LINE
8
0
62
0
10
17.019182
20
620.16797
30
0
11
40.158257
21
619.62836
31
0
0
LINE
8
0
62
0
10
40.158257
20
619.62836
30
0
11
77.502335
21
637.36237
31
0
0
LINE
8
0
62
0
10
77.502335
20
637.36237
30
0
11
91.70734
21
655.636
31
0
0
LINE
8
0
62
1
10
91.706345
20
655.6362
30
0
11
41.534557
21
669.548
31
0
0
LINE
8
0
62
1
10
91.706345
20
655.6362
30
0
11
52.310062
21
719.95264
31
0
0
LINE
8
0
62
0
10
91.706345
20
655.6362
30
0
11
90.70625
21
677.1357
31
0
0
LINE
8
0
62
0
10
90.70625
20
677.1357
30
0
11
71.00811
21
709.2939
31
0
0
LINE
8
0
62
0
10
71.00811
20
709.2939
30
0
11
52.310062
21
719.95264
31
0
0
LINE
8
0
62
1
10
41.534557
20
669.548
30
0
11
52.310062
21
719.95264
31
0
0
LINE
8
0
62
0
10
52.310062
20
719.95264
30
0
11
38.93912
21
705.24133
31
0
0
LINE
8
0
62
0
10
41.534557
20
669.548
30
0
11
38.93912
21
705.24133
31
0
0
LINE
8
0
62
0
10
-8.0
20
729.95264
30
0
11
0.0
21
729.95264
31
0
0
LINE
8
0
62
0
10
0.0
20
729.95264
30
0
11
0.0
21
731.95264
31
0
0
LINE
8
0
62
0
10
0.0
20
731.95264
30
0
11
-8.0
21
737.95264
31
0
0
LINE
8
0
62
0
10
-8.0
20
737.95264
30
0
11
0.0
21
737.95264
31
0
0
LINE
8
0
62
0
10
6.799999
20
737.95264
30
0
11
6.799999
21
729.95264
31
0
0
LINE
8
0
62
0
10
6.799999
20
729.95264
30
0
11
0.79999924
21
733.95264
31
0
0
LINE
8
0
62
0
10
0.79999924
20
733.95264
30
0
11
8.799999
21
733.95264
31
0
0
LINE
8
0
62
0
10
231.80359
20
687.5925
30
0
11
183.34718
21
653.4667
31
0
0
LINE
8
0
62
1
10
231.80359
20
687.5925
30
0
11
131.70734
21
674.0348
31
0
0
LINE
8
0
62
0
10
231.80359
20
687.5925
30
0
11
205.36952
21
694.6131
31
0
0
LINE
8
0
62
0
10
205.36952
20
694.6131
30
0
11
155.3214
21
687.8342
31
0
0
LINE
8
0
62
0
10
155.3214
20
687.8342
30
0
11
131.70734
21
674.0348
31
0
0
LINE
8
0
62
1
10
131.71097
20
674.0334
30
0
11
183.34718
21
653.4667
31
0
0
LINE
8
0
62
1
10
131.71097
20
674.0334
30
0
11
164.961
21
620.16925
31
0
0
LINE
8
0
62
0
10
131.71097
20
674.0334
30
0
11
131.24484
21
655.1483
31
0
0
LINE
8
0
62
0
10
131.24484
20
655.1483
30
0
11
147.86986
21
628.21625
31
0
0
LINE
8
0
62
0
10
147.86986
20
628.21625
30
0
11
164.961
21
620.16925
31
0
0
LINE
8
0
62
1
10
164.96028
20
620.16797
30
0
11
183.34718
21
653.4667
31
0
0
LINE
8
0
62
1
10
164.96028
20
620.16797
30
0
11
237.1101
21
628.5304
31
0
0
LINE
8
0
62
0
10
164.96028
20
620.16797
30
0
11
184.19087
21
611.9643
31
0
0
LINE
8
0
62
0
10
184.19087
20
611.9643
30
0
11
220.2658
21
616.1455
31
0
0
LINE
8
0
62
0
10
220.2658
20
616.1455
30
0
11
237.1101
21
628.5304
31
0
0
LINE
8
0
62
1
10
183.34718
20
653.4667
30
0
11
237.1101
21
628.5304
31
0
0
LINE
8
0
62
0
10
237.1101
20
628.5304
30
0
11
223.39641
21
645.91437
31
0
0
LINE
8
0
62
0
10
183.34718
20
653.4667
30
0
11
223.39641
21
645.91437
31
0
0
LINE
8
0
62
0
10
123.70734
20
697.5925
30
0
11
131.70734
21
697.5925
31
0
0
LINE
8
0
62
0
10
131.70734
20
697.5925
30
0
11
131.70734
21
699.5925
31
0
0
LINE
8
0
62
0
10
131.70734
20
699.5925
30
0
11
123.70734
21
705.5925
31
0
0
LINE
8
0
62
0
10
123.70734
20
705.5925
30
0
11
131.70734
21
705.5925
31
0
0
LINE
8
0
62
0
10
140.50734
20
697.5925
30
0
11
132.50734
21
697.5925
31
0
0
LINE
8
0
62
0
10
132.50734
20
697.5925
30
0
11
132.50734
21
701.5925
31
0
0
LINE
8
0
62
0
10
132.50734
20
701.5925
30
0
11
140.50734
21
701.5925
31
0
0
LINE
8
0
62
0
10
140.50734
20
701.5925
30
0
11
140.50734
21
705.5925
31
0
0
LINE
8
0
62
0
10
140.50734
20
705.5925
30
0
11
132.50734
21
705.5925
31
0
0
LINE
8
0
62
0
10
334.2708
20
620.16797
30
0
11
305.82474
21
669.06067
31
0
0
LINE
8
0
62
1
10
334.2708
20
620.16797
30
0
11
340.04004
21
687.3795
31
0
0
LINE
8
0
62
0
10
334.2708
20
620.16797
30
0
11
346.01254
21
636.0868
31
0
0
LINE
8
0
62
0
10
346.01254
20
636.0868
30
0
11
348.89716
21
669.69257
31
0
0
LINE
8
0
62
0
10
348.89716
20
669.69257
30
0
11
340.04004
21
687.3795
31
0
0
LINE
8
0
62
1
10
340.04028
20
687.37964
30
0
11
305.82474
21
669.06067
31
0
0
LINE
8
0
62
1
10
340.04028
20
687.37964
30
0
11
278.9251
21
719.55054
31
0
0
LINE
8
0
62
0
10
340.04028
20
687.37964
30
0
11
329.58038
21
704.57684
31
0
0
LINE
8
0
62
0
10
329.58038
20
704.57684
30
0
11
299.0228
21
720.66223
31
0
0
LINE
8
0
62
0
10
299.0228
20
720.66223
30
0
11
278.9251
21
719.55054
31
0
0
LINE
8
0
62
1
10
278.92365
20
719.5532
30
0
11
305.82474
21
669.06067
31
0
0
LINE
8
0
62
1
10
278.92365
20
719.5532
30
0
11
277.1101
21
620.32135
31
0
0
LINE
8
0
62
0
10
278.92365
20
719.5532
30
0
11
267.97577
21
694.9371
31
0
0
LINE
8
0
62
0
10
267.97577
20
694.9371
30
0
11
267.069
21
645.3211
31
0
0
LINE
8
0
62
0
10
267.069
20
645.3211
30
0
11
277.1101
21
620.32135
31
0
0
LINE
8
0
62
1
10
305.82474
20
669.06067
30
0
11
277.1101
21
620.32135
31
0
0
LINE
8
0
62
0
10
277.1101
20
620.32135
30
0
11
295.29776
21
631.49207
31
0
0
LINE
8
0
62
0
10
305.82474
20
669.06067
30
0
11
295.29776
21
631.49207
31
0
0
LINE
8
0
62
0
10
269.1101
20
729.5532
30
0
11
277.1101
21
729.5532
31
0
0
LINE
8
0
62
0
10
277.1101
20
729.5532
30
0
11
277.1101
21
731.5532
31
0
0
LINE
8
0
62
0
10
277.1101
20
731.5532
30
0
11
269.1101
21
737.5532
31
0
0
LINE
8
0
62
0
10
269.1101
20
737.5532
30
0
11
277.1101
21
737.5532
31
0
0
LINE
8
0
62
0
10
285.91013
20
729.5532
30
0
11
277.91013
21
733.5532
31
0
0
LINE
8
0
62
0
10
277.91013
20
733.5532
30
0
11
277.91013
21
737.5532
31
0
0
LINE
8
0
62
0
10
277.91013
20
737.5532
30
0
11
285.91013
21
737.5532
31
0
0
LINE
8
0
62
0
10
285.91013
20
737.5532
30
0
11
285.91013
21
733.5532
31
0
0
LINE
8
0
62
0
10
285.91013
20
733.5532
30
0
11
277.91013
21
733.5532
31
0
0
LINE
8
0
62
0
10
498.59808
20
709.9803
30
0
11
429.57404
21
677.6311
31
0
0
LINE
8
0
62
1
10
498.59808
20
709.9803
30
0
11
380.04028
21
726.13416
31
0
0
LINE
8
0
62
0
10
498.59808
20
709.9803
30
0
11
470.38947
21
724.51996
31
0
0
LINE
8
0
62
0
10
470.38947
20
724.51996
30
0
11
411.11057
21
732.5969
31
0
0
LINE
8
0
62
0
10
411.11057
20
732.5969
30
0
11
380.04028
21
726.13416
31
0
0
LINE
8
0
62
1
10
380.04837
20
726.1262
30
0
11
429.57404
21
677.6311
31
0
0
LINE
8
0
62
1
10
380.04837
20
726.1262
30
0
11
383.19467
21
643.5042
31
0
0
LINE
8
0
62
0
10
380.04837
20
726.1262
30
0
11
370.42908
21
705.07446
31
0
0
LINE
8
0
62
0
10
370.42908
20
705.07446
30
0
11
372.00223
21
663.7634
31
0
0
LINE
8
0
62
0
10
372.00223
20
663.7634
30
0
11
383.19467
21
643.5042
31
0
0
LINE
8
0
62
1
10
383.18823
20
643.49945
30
0
11
429.57404
21
677.6311
31
0
0
LINE
8
0
62
1
10
383.18823
20
643.49945
30
0
11
479.65533
21
620.16797
31
0
0
LINE
8
0
62
0
10
383.18823
20
643.49945
30
0
11
404.83752
21
627.4645
31
0
0
LINE
8
0
62
0
10
404.83752
20
627.4645
30
0
11
453.07108
21
615.79877
31
0
0
LINE
8
0
62
0
10
453.07108
20
615.79877
30
0
11
479.65533
21
620.16797
31
0
0
LINE
8
0
62
1
10
429.57404
20
677.6311
30
0
11
479.65533
21
620.16797
31
0
0
LINE
8
0
62
0
10
479.65533
20
620.16797
30
0
11
470.4999
21
645.893
31
0
0
LINE
8
0
62
0
10
429.57404
20
677.6311
30
0
11
470.4999
21
645.893
31
0
0
LINE
8
0
62
0
10
372.04028
20
736.13416
30
0
11
380.04028
21
736.13416
31
0
0
LINE
8
0
62
0
10
380.04028
20
736.13416
30
0
11
380.04028
21
738.13416
31
0
0
LINE
8
0
62
0
10
380.04028
20
738.13416
30
0
11
372.04028
21
744.13416
31
0
0
LINE
8
0
62
0
10
372.04028
20
744.13416
30
0
11
380.04028
21
744.13416
31
0
0
LINE
8
0
62
0
10
380.84027
20
736.13416
30
0
11
388.84027
21
736.13416
31
0
0
LINE
8
0
62
0
10
388.84027
20
736.13416
30
0
11
380.84027
21
744.13416
31
0
0
LINE
8
0
62
0
10
622.04535
20
641.66187
30
0
11
584.7632
21
663.23987
31
0
0
LINE
8
0
62
1
10
622.04535
20
641.66187
30
0
11
603.87225
21
703.96967
31
0
0
LINE
8
0
62
0
10
622.04535
20
641.66187
30
0
11
627.41364
21
660.1297
31
0
0
LINE
8
0
62
0
10
627.41364
20
660.1297
30
0
11
618.3271
21
691.28357
31
0
0
LINE
8
0
62
0
10
618.3271
20
691.28357
30
0
11
603.87225
21
703.96967
31
0
0
LINE
8
0
62
1
10
603.8727
20
703.97046
30
0
11
584.7632
21
663.23987
31
0
0
LINE
8
0
62
1
10
603.8727
20
703.97046
30
0
11
538.5981
21
672.11523
31
0
0
LINE
8
0
62
0
10
603.8727
20
703.97046
30
0
11
583.009
21
705.31995
31
0
0
LINE
8
0
62
0
10
583.009
20
705.31995
30
0
11
550.37164
21
689.39233
31
0
0
LINE
8
0
62
0
10
550.37164
20
689.39233
30
0
11
538.5981
21
672.11523
31
0
0
LINE
8
0
62
1
10
538.59845
20
672.1152
30
0
11
584.7632
21
663.23987
31
0
0
LINE
8
0
62
1
10
538.59845
20
672.1152
30
0
11
584.1123
21
620.16797
31
0
0
LINE
8
0
62
0
10
538.59845
20
672.1152
30
0
11
542.19574
21
652.31085
31
0
0
LINE
8
0
62
0
10
542.19574
20
652.31085
30
0
11
564.95264
21
626.3372
31
0
0
LINE
8
0
62
0
10
564.95264
20
626.3372
30
0
11
584.1123
21
620.16797
31
0
0
LINE
8
0
62
1
10
584.7632
20
663.23987
30
0
11
584.1123
21
620.16797
31
0
0
LINE
8
0
62
0
10
584.1123
20
620.16797
30
0
11
594.3281
21
634.37445
31
0
0
LINE
8
0
62
0
10
584.7632
20
663.23987
30
0
11
594.3281
21
634.37445
31
0
0
LINE
8
0
62
0
10
530.5981
20
713.97046
30
0
11
538.5981
21
713.97046
31
0
0
LINE
8
0
62
0
10
538.5981
20
713.97046
30
0
11
538.5981
21
715.97046
31
0
0
LINE
8
0
62
0
10
538.5981
20
715.97046
30
0
11
530.5981
21
721.97046
31
0
0
LINE
8
0
62
0
10
530.5981
20
721.97046
30
0
11
538.5981
21
721.97046
31
0
0
LINE
8
0
62
0
10
539.3981
20
713.97046
30
0
11
547.3981
21
721.97046
31
0
0
LINE
8
0
62
0
10
547.3981
20
721.97046
30
0
11
539.3981
21
721.97046
31
0
0
LINE
8
0
62
0
10
539.3981
20
721.97046
30
0
11
547.3981
21
713.97046
31
0
0
LINE
8
0
62
0
10
547.3981
20
713.97046
30
0
11
539.3981
21
713.97046
31
0
0
LINE
8
0
62
0
10
685.1262
20
680.39795
30
0
11
696.8004
21
657.6151
31
0
0
LINE
8
0
62
1
10
685.1262
20
680.39795
30
0
11
662.04926
21
660.4941
31
0
0
LINE
8
0
62
0
10
685.1262
20
680.39795
30
0
11
672.7262
21
683.10986
31
0
0
LINE
8
0
62
0
10
672.7262
20
683.10986
30
0
11
661.1877
21
673.1579
31
0
0
LINE
8
0
62
0
10
661.1877
20
673.1579
30
0
11
662.04926
21
660.4941
31
0
0
LINE
8
0
62
1
10
662.0454
20
660.4944
30
0
11
696.8004
21
657.6151
31
0
0
LINE
8
0
62
1
10
662.0454
20
660.4944
30
0
11
725.7827
21
620.16797
31
0
0
LINE
8
0
62
0
10
662.0454
20
660.4944
30
0
11
672.4314
21
641.6435
31
0
0
LINE
8
0
62
0
10
672.4314
20
641.6435
30
0
11
704.30005
21
621.4803
31
0
0
LINE
8
0
62
0
10
704.30005
20
621.4803
30
0
11
725.7827
21
620.16797
31
0
0
LINE
8
0
62
1
10
725.7823
20
620.1685
30
0
11
696.8004
21
657.6151
31
0
0
LINE
8
0
62
1
10
725.7823
20
620.1685
30
0
11
707.6373
21
680.81226
31
0
0
LINE
8
0
62
0
10
725.7823
20
620.1685
30
0
11
731.12964
21
638.2867
31
0
0
LINE
8
0
62
0
10
731.12964
20
638.2867
30
0
11
722.0571
21
668.6085
31
0
0
LINE
8
0
62
0
10
722.0571
20
668.6085
30
0
11
707.6373
21
680.81226
31
0
0
LINE
8
0
62
1
10
696.8004
20
657.6151
30
0
11
707.6373
21
680.81226
31
0
0
LINE
8
0
62
0
10
707.6373
20
680.81226
30
0
11
694.96484
21
677.3123
31
0
0
LINE
8
0
62
0
10
696.8004
20
657.6151
30
0
11
694.96484
21
677.3123
31
0
0
LINE
8
0
62
0
10
654.0454
20
690.81226
30
0
11
662.0454
21
690.81226
31
0
0
LINE
8
0
62
0
10
662.0454
20
690.81226
30
0
11
662.0454
21
692.81226
31
0
0
LINE
8
0
62
0
10
662.0454
20
692.81226
30
0
11
654.0454
21
698.81226
31
0
0
LINE
8
0
62
0
10
654.0454
20
698.81226
30
0
11
662.0454
21
698.81226
31
0
0
LINE
8
0
62
0
10
662.8454
20
698.81226
30
0
11
670.8454
21
694.81226
31
0
0
LINE
8
0
62
0
10
670.8454
20
694.81226
30
0
11
670.8454
21
690.81226
31
0
0
LINE
8
0
62
0
10
670.8454
20
690.81226
30
0
11
662.8454
21
690.81226
31
0
0
LINE
8
0
62
0
10
662.8454
20
690.81226
30
0
11
662.8454
21
694.81226
31
0
0
LINE
8
0
62
0
10
662.8454
20
694.81226
30
0
11
670.8454
21
694.81226
31
0
0
LINE
8
0
62
0
10
819.5773
20
652.2099
30
0
11
790.8413
21
645.3322
31
0
0
LINE
8
0
62
1
10
819.5773
20
652.2099
30
0
11
777.46185
21
679.9022
31
0
0
LINE
8
0
62
0
10
819.5773
20
652.2099
30
0
11
814.68097
21
667.6991
31
0
0
LINE
8
0
62
0
10
814.68097
20
667.6991
30
0
11
793.6232
21
681.5453
31
0
0
LINE
8
0
62
0
10
793.6232
20
681.5453
30
0
11
777.46185
21
679.9022
31
0
0
LINE
8
0
62
1
10
777.4615
20
679.9032
30
0
11
790.8413
21
645.3322
31
0
0
LINE
8
0
62
1
10
777.4615
20
679.9032
30
0
11
765.7827
21
620.16797
31
0
0
LINE
8
0
62
0
10
777.4615
20
679.9032
30
0
11
764.42896
21
666.94653
31
0
0
LINE
8
0
62
0
10
764.42896
20
666.94653
30
0
11
758.58954
21
637.079
31
0
0
LINE
8
0
62
0
10
758.58954
20
637.079
30
0
11
765.7827
21
620.16797
31
0
0
LINE
8
0
62
1
10
765.7837
20
620.169
30
0
11
790.8413
21
645.3322
31
0
0
LINE
8
0
62
1
10
765.7837
20
620.169
30
0
11
812.4377
21
625.1671
31
0
0
LINE
8
0
62
0
10
765.7837
20
620.169
30
0
11
778.5374
21
611.2421
31
0
0
LINE
8
0
62
0
10
778.5374
20
611.2421
30
0
11
801.8644
21
613.7412
31
0
0
LINE
8
0
62
0
10
801.8644
20
613.7412
30
0
11
812.4377
21
625.1671
31
0
0
LINE
8
0
62
1
10
790.8413
20
645.3322
30
0
11
812.4377
21
625.1671
31
0
0
LINE
8
0
62
0
10
812.4377
20
625.1671
30
0
11
812.0635
21
639.19806
31
0
0
LINE
8
0
62
0
10
790.8413
20
645.3322
30
0
11
812.0635
21
639.19806
31
0
0
LINE
8
0
62
0
10
757.7827
20
689.9032
30
0
11
765.7827
21
689.9032
31
0
0
LINE
8
0
62
0
10
765.7827
20
689.9032
30
0
11
759.7827
21
693.9032
31
0
0
LINE
8
0
62
0
10
759.7827
20
693.9032
30
0
11
765.7827
21
693.9032
31
0
0
LINE
8
0
62
0
10
765.7827
20
693.9032
30
0
11
765.7827
21
697.9032
31
0
0
LINE
8
0
62
0
10
765.7827
20
697.9032
30
0
11
757.7827
21
697.9032
31
0
0
LINE
8
0
62
0
10
774.5827
20
689.9032
30
0
11
766.5827
21
689.9032
31
0
0
LINE
8
0
62
0
10
766.5827
20
689.9032
30
0
11
766.5827
21
697.9032
31
0
0
LINE
8
0
62
0
10
766.5827
20
697.9032
30
0
11
774.5827
21
697.9032
31
0
0
LINE
8
0
62
0
10
774.5827
20
697.9032
30
0
11
774.5827
21
689.9032
31
0
0
LINE
8
0
62
0
10
774.5827
20
689.9032
30
0
11
766.5827
21
697.9032
31
0
0
LINE
8
0
62
0
10
915.0532
20
629.797
30
0
11
887.83185
21
658.9456
31
0
0
LINE
8
0
62
1
10
915.0532
20
629.797
30
0
11
902.07245
21
692.10474
31
0
0
LINE
8
0
62
0
10
915.0532
20
629.797
30
0
11
921.90936
21
647.47833
31
0
0
LINE
8
0
62
0
10
921.90936
20
647.47833
30
0
11
915.419
21
678.6322
31
0
0
LINE
8
0
62
0
10
915.419
20
678.6322
30
0
11
902.07245
21
692.10474
31
0
0
LINE
8
0
62
1
10
902.0718
20
692.10315
30
0
11
887.83185
21
658.9456
31
0
0
LINE
8
0
62
1
10
902.0718
20
692.10315
30
0
11
859.5782
21
672.2066
31
0
0
LINE
8
0
62
0
10
902.0718
20
692.10315
30
0
11
887.10846
21
696.3979
31
0
0
LINE
8
0
62
0
10
887.10846
20
696.3979
30
0
11
865.86163
21
686.44965
31
0
0
LINE
8
0
62
0
10
865.86163
20
686.44965
30
0
11
859.5782
21
672.2066
31
0
0
LINE
8
0
62
1
10
859.5773
20
672.20703
30
0
11
887.83185
21
658.9456
31
0
0
LINE
8
0
62
1
10
859.5773
20
672.20703
30
0
11
878.5109
21
620.16797
31
0
0
LINE
8
0
62
0
10
859.5773
20
672.20703
30
0
11
854.65314
21
655.68353
31
0
0
LINE
8
0
62
0
10
854.65314
20
655.68353
30
0
11
864.11993
21
629.664
31
0
0
LINE
8
0
62
0
10
864.11993
20
629.664
30
0
11
878.5109
21
620.16797
31
0
0
LINE
8
0
62
1
10
887.83185
20
658.9456
30
0
11
878.5109
21
620.16797
31
0
0
LINE
8
0
62
0
10
878.5109
20
620.16797
30
0
11
891.341
21
630.75696
31
0
0
LINE
8
0
62
0
10
887.83185
20
658.9456
30
0
11
891.341
21
630.75696
31
0
0
LINE
8
0
62
0
10
851.5773
20
702.10474
30
0
11
859.5773
21
702.10474
31
0
0
LINE
8
0
62
0
10
859.5773
20
702.10474
30
0
11
853.5773
21
706.10474
31
0
0
LINE
8
0
62
0
10
853.5773
20
706.10474
30
0
11
859.5773
21
706.10474
31
0
0
LINE
8
0
62
0
10
859.5773
20
706.10474
30
0
11
859.5773
21
710.10474
31
0
0
LINE
8
0
62
0
10
859.5773
20
710.10474
30
0
11
851.5773
21
710.10474
31
0
0
LINE
8
0
62
0
10
860.37726
20
704.10474
30
0
11
864.37726
21
702.10474
31
0
0
LINE
8
0
62
0
10
864.37726
20
702.10474
30
0
11
864.37726
21
710.10474
31
0
0
LINE
8
0
62
0
10
48.465298
20
823.1561
30
0
11
54.821487
21
792.97217
31
0
0
LINE
8
0
62
1
10
48.465298
20
823.1561
30
0
11
0.0037078857
21
775.2715
31
0
0
LINE
8
0
62
0
10
48.465298
20
823.1561
30
0
11
29.081877
21
818.5405
31
0
0
LINE
8
0
62
0
10
29.081877
20
818.5405
30
0
11
4.8510857
21
794.5982
31
0
0
LINE
8
0
62
0
10
4.8510857
20
794.5982
30
0
11
0.0037078857
21
775.2715
31
0
0
LINE
8
0
62
1
10
0.0
20
775.27026
30
0
11
54.821487
21
792.97217
31
0
0
LINE
8
0
62
1
10
0.0
20
775.27026
30
0
11
100.19093
21
766.13416
31
0
0
LINE
8
0
62
0
10
0.0
20
775.27026
30
0
11
24.09395
21
762.5266
31
0
0
LINE
8
0
62
0
10
24.09395
20
762.5266
30
0
11
74.18942
21
757.95856
31
0
0
LINE
8
0
62
0
10
74.18942
20
757.95856
30
0
11
100.19093
21
766.13416
31
0
0
LINE
8
0
62
1
10
100.183754
20
766.1384
30
0
11
54.821487
21
792.97217
31
0
0
LINE
8
0
62
1
10
100.183754
20
766.1384
30
0
11
75.92405
21
815.46045
31
0
0
LINE
8
0
62
0
10
100.183754
20
766.1384
30
0
11
103.33872
21
783.00385
31
0
0
LINE
8
0
62
0
10
103.33872
20
783.00385
30
0
11
91.20887
21
807.6649
31
0
0
LINE
8
0
62
0
10
91.20887
20
807.6649
30
0
11
75.92405
21
815.46045
31
0
0
LINE
8
0
62
1
10
54.821487
20
792.97217
30
0
11
75.92405
21
815.46045
31
0
0
LINE
8
0
62
0
10
75.92405
20
815.46045
30
0
11
61.597546
21
814.807
31
0
0
LINE
8
0
62
0
10
54.821487
20
792.97217
30
0
11
61.597546
21
814.807
31
0
0
LINE
8
0
62
0
10
-8.0
20
833.1561
30
0
11
0.0
21
833.1561
31
0
0
LINE
8
0
62
0
10
0.0
20
833.1561
30
0
11
-6.0
21
837.1561
31
0
0
LINE
8
0
62
0
10
-6.0
20
837.1561
30
0
11
0.0
21
837.1561
31
0
0
LINE
8
0
62
0
10
0.0
20
837.1561
30
0
11
0.0
21
841.1561
31
0
0
LINE
8
0
62
0
10
0.0
20
841.1561
30
0
11
-8.0
21
841.1561
31
0
0
LINE
8
0
62
0
10
0.79999924
20
833.1561
30
0
11
8.799999
21
833.1561
31
0
0
LINE
8
0
62
0
10
8.799999
20
833.1561
30
0
11
8.799999
21
835.1561
31
0
0
LINE
8
0
62
0
10
8.799999
20
835.1561
30
0
11
0.79999924
21
841.1561
31
0
0
LINE
8
0
62
0
10
0.79999924
20
841.1561
30
0
11
8.799999
21
841.1561
31
0
0
LINE
8
0
62
0
10
163.27777
20
829.6201
30
0
11
165.83815
21
802.94196
31
0
0
LINE
8
0
62
1
10
163.27777
20
829.6201
30
0
11
140.20082
21
809.71625
31
0
0
LINE
8
0
62
0
10
163.27777
20
829.6201
30
0
11
150.87775
21
832.33203
31
0
0
LINE
8
0
62
0
10
150.87775
20
832.33203
30
0
11
139.33928
21
822.3801
31
0
0
LINE
8
0
62
0
10
139.33928
20
822.3801
30
0
11
140.20082
21
809.71625
31
0
0
LINE
8
0
62
1
10
140.19093
20
809.7189
30
0
11
165.83815
21
802.94196
31
0
0
LINE
8
0
62
1
10
140.19093
20
809.7189
30
0
11
173.68079
21
766.13416
31
0
0
LINE
8
0
62
0
10
140.19093
20
809.7189
30
0
11
140.416
21
792.5624
31
0
0
LINE
8
0
62
0
10
140.416
20
792.5624
30
0
11
157.16092
21
770.77
31
0
0
LINE
8
0
62
0
10
157.16092
20
770.77
30
0
11
173.68079
21
766.13416
31
0
0
LINE
8
0
62
1
10
173.6808
20
766.13416
30
0
11
165.83815
21
802.94196
31
0
0
LINE
8
0
62
1
10
173.6808
20
766.13416
30
0
11
186.52174
21
820.00116
31
0
0
LINE
8
0
62
0
10
173.6808
20
766.13416
30
0
11
186.8878
21
777.21783
31
0
0
LINE
8
0
62
0
10
186.8878
20
777.21783
30
0
11
193.30827
21
804.15137
31
0
0
LINE
8
0
62
0
10
193.30827
20
804.15137
30
0
11
186.52174
21
820.00116
31
0
0
LINE
8
0
62
1
10
165.83815
20
802.94196
30
0
11
186.52174
21
820.00116
31
0
0
LINE
8
0
62
0
10
186.52174
20
820.00116
30
0
11
173.2643
21
822.02924
31
0
0
LINE
8
0
62
0
10
165.83815
20
802.94196
30
0
11
173.2643
21
822.02924
31
0
0
LINE
8
0
62
0
10
132.19093
20
839.6201
30
0
11
140.19093
21
839.6201
31
0
0
LINE
8
0
62
0
10
140.19093
20
839.6201
30
0
11
134.19093
21
843.6201
31
0
0
LINE
8
0
62
0
10
134.19093
20
843.6201
30
0
11
140.19093
21
843.6201
31
0
0
LINE
8
0
62
0
10
140.19093
20
843.6201
30
0
11
140.19093
21
847.6201
31
0
0
LINE
8
0
62
0
10
140.19093
20
847.6201
30
0
11
132.19093
21
847.6201
31
0
0
LINE
8
0
62
0
10
140.99094
20
839.6201
30
0
11
148.99094
21
839.6201
31
0
0
LINE
8
0
62
0
10
148.99094
20
839.6201
30
0
11
142.99094
21
843.6201
31
0
0
LINE
8
0
62
0
10
142.99094
20
843.6201
30
0
11
148.99094
21
843.6201
31
0
0
LINE
8
0
62
0
10
148.99094
20
843.6201
30
0
11
148.99094
21
847.6201
31
0
0
LINE
8
0
62
0
10
148.99094
20
847.6201
30
0
11
140.99094
21
847.6201
31
0
0
LINE
8
0
62
0
10
298.41132
20
799.52673
30
0
11
263.8173
21
790.4687
31
0
0
LINE
8
0
62
1
10
298.41132
20
799.52673
30
0
11
256.2959
21
827.21906
31
0
0
LINE
8
0
62
0
10
298.41132
20
799.52673
30
0
11
293.51498
21
815.0159
31
0
0
LINE
8
0
62
0
10
293.51498
20
815.0159
30
0
11
272.45728
21
828.86206
31
0
0
LINE
8
0
62
0
10
272.45728
20
828.86206
30
0
11
256.2959
21
827.21906
31
0
0
LINE
8
0
62
1
10
256.29468
20
827.225
30
0
11
263.8173
21
790.4687
31
0
0
LINE
8
0
62
1
10
256.29468
20
827.225
30
0
11
226.52173
21
767.7745
31
0
0
LINE
8
0
62
0
10
256.29468
20
827.225
30
0
11
239.6128
21
816.9891
31
0
0
LINE
8
0
62
0
10
239.6128
20
816.9891
30
0
11
224.72632
21
787.2638
31
0
0
LINE
8
0
62
0
10
224.72632
20
787.2638
30
0
11
226.52173
21
767.7745
31
0
0
LINE
8
0
62
1
10
226.52234
20
767.7748
30
0
11
263.8173
21
790.4687
31
0
0
LINE
8
0
62
1
10
226.52234
20
767.7748
30
0
11
290.0283
21
766.13416
31
0
0
LINE
8
0
62
0
10
226.52234
20
767.7748
30
0
11
242.13237
21
757.0505
31
0
0
LINE
8
0
62
0
10
242.13237
20
757.0505
30
0
11
273.88535
21
756.23016
31
0
0
LINE
8
0
62
0
10
273.88535
20
756.23016
30
0
11
290.0283
21
766.13416
31
0
0
LINE
8
0
62
1
10
263.8173
20
790.4687
30
0
11
290.0283
21
766.13416
31
0
0
LINE
8
0
62
0
10
290.0283
20
766.13416
30
0
11
288.09497
21
781.57434
31
0
0
LINE
8
0
62
0
10
263.8173
20
790.4687
30
0
11
288.09497
21
781.57434
31
0
0
LINE
8
0
62
0
10
218.52173
20
837.225
30
0
11
226.52173
21
837.225
31
0
0
LINE
8
0
62
0
10
226.52173
20
837.225
30
0
11
220.52173
21
841.225
31
0
0
LINE
8
0
62
0
10
220.52173
20
841.225
30
0
11
226.52173
21
841.225
31
0
0
LINE
8
0
62
0
10
226.52173
20
841.225
30
0
11
226.52173
21
845.225
31
0
0
LINE
8
0
62
0
10
226.52173
20
845.225
30
0
11
218.52173
21
845.225
31
0
0
LINE
8
0
62
0
10
233.32173
20
845.225
30
0
11
233.32173
21
837.225
31
0
0
LINE
8
0
62
0
10
233.32173
20
837.225
30
0
11
227.32173
21
841.225
31
0
0
LINE
8
0
62
0
10
227.32173
20
841.225
30
0
11
235.32173
21
841.225
31
0
0
LINE
8
0
62
0
10
360.4385
20
766.13416
30
0
11
378.33618
21
802.11945
31
0
0
LINE
8
0
62
1
10
360.4385
20
766.13416
30
0
11
417.55396
21
800.17267
31
0
0
LINE
8
0
62
0
10
360.4385
20
766.13416
30
0
11
380.007
21
765.768
31
0
0
LINE
8
0
62
0
10
380.007
20
765.768
30
0
11
408.5647
21
782.78723
31
0
0
LINE
8
0
62
0
10
408.5647
20
782.78723
30
0
11
417.55396
21
800.17267
31
0
0
LINE
8
0
62
1
10
417.55252
20
800.1727
30
0
11
378.33618
21
802.11945
31
0
0
LINE
8
0
62
1
10
417.55252
20
800.1727
30
0
11
378.17554
21
834.5637
31
0
0
LINE
8
0
62
0
10
417.55252
20
800.1727
30
0
11
414.45834
21
816.49915
31
0
0
LINE
8
0
62
0
10
414.45834
20
816.49915
30
0
11
394.76987
21
833.69464
31
0
0
LINE
8
0
62
0
10
394.76987
20
833.69464
30
0
11
378.17554
21
834.5637
31
0
0
LINE
8
0
62
1
10
378.17554
20
834.56396
30
0
11
378.33618
21
802.11945
31
0
0
LINE
8
0
62
1
10
378.17554
20
834.56396
30
0
11
338.41132
21
797.5176
31
0
0
LINE
8
0
62
0
10
378.17554
20
834.56396
30
0
11
361.23264
21
832.8179
31
0
0
LINE
8
0
62
0
10
361.23264
20
832.8179
30
0
11
341.35052
21
814.2947
31
0
0
LINE
8
0
62
0
10
341.35052
20
814.2947
30
0
11
338.41132
21
797.5176
31
0
0
LINE
8
0
62
1
10
378.33618
20
802.11945
30
0
11
338.41132
21
797.5176
31
0
0
LINE
8
0
62
0
10
338.41132
20
797.5176
30
0
11
352.86493
21
789.1173
31
0
0
LINE
8
0
62
0
10
378.33618
20
802.11945
30
0
11
352.86493
21
789.1173
31
0
0
LINE
8
0
62
0
10
330.41132
20
844.56396
30
0
11
338.41132
21
844.56396
31
0
0
LINE
8
0
62
0
10
338.41132
20
844.56396
30
0
11
332.41132
21
848.56396
31
0
0
LINE
8
0
62
0
10
332.41132
20
848.56396
30
0
11
338.41132
21
848.56396
31
0
0
LINE
8
0
62
0
10
338.41132
20
848.56396
30
0
11
338.41132
21
852.56396
31
0
0
LINE
8
0
62
0
10
338.41132
20
852.56396
30
0
11
330.41132
21
852.56396
31
0
0
LINE
8
0
62
0
10
347.2113
20
844.56396
30
0
11
339.2113
21
844.56396
31
0
0
LINE
8
0
62
0
10
339.2113
20
844.56396
30
0
11
339.2113
21
848.56396
31
0
0
LINE
8
0
62
0
10
339.2113
20
848.56396
30
0
11
347.2113
21
848.56396
31
0
0
LINE
8
0
62
0
10
347.2113
20
848.56396
30
0
11
347.2113
21
852.56396
31
0
0
LINE
8
0
62
0
10
347.2113
20
852.56396
30
0
11
339.2113
21
852.56396
31
0
0
LINE
8
0
62
0
10
506.01724
20
815.67224
30
0
11
485.38644
21
803.2484
31
0
0
LINE
8
0
62
1
10
506.01724
20
815.67224
30
0
11
457.55566
21
835.28766
31
0
0
LINE
8
0
62
0
10
506.01724
20
815.67224
30
0
11
497.75186
21
830.0879
31
0
0
LINE
8
0
62
0
10
497.75186
20
830.0879
30
0
11
473.52106
21
839.89557
31
0
0
LINE
8
0
62
0
10
473.52106
20
839.89557
30
0
11
457.55566
21
835.28766
31
0
0
LINE
8
0
62
1
10
457.55396
20
835.2897
30
0
11
485.38644
21
803.2484
31
0
0
LINE
8
0
62
1
10
457.55396
20
835.2897
30
0
11
479.06198
21
766.13416
31
0
0
LINE
8
0
62
0
10
457.55396
20
835.2897
30
0
11
453.03632
21
814.92346
31
0
0
LINE
8
0
62
0
10
453.03632
20
814.92346
30
0
11
463.79034
21
780.3457
31
0
0
LINE
8
0
62
0
10
463.79034
20
780.3457
30
0
11
479.06198
21
766.13416
31
0
0
LINE
8
0
62
1
10
479.06317
20
766.14124
30
0
11
485.38644
21
803.2484
31
0
0
LINE
8
0
62
1
10
479.06317
20
766.14124
30
0
11
507.5653
21
793.8803
31
0
0
LINE
8
0
62
0
10
479.06317
20
766.14124
30
0
11
493.30188
21
765.76715
31
0
0
LINE
8
0
62
0
10
493.30188
20
765.76715
30
0
11
507.55295
21
779.63666
31
0
0
LINE
8
0
62
0
10
507.55295
20
779.63666
30
0
11
507.5653
21
793.8803
31
0
0
LINE
8
0
62
1
10
485.38644
20
803.2484
30
0
11
507.5653
21
793.8803
31
0
0
LINE
8
0
62
0
10
507.5653
20
793.8803
30
0
11
504.06323
21
806.215
31
0
0
LINE
8
0
62
0
10
485.38644
20
803.2484
30
0
11
504.06323
21
806.215
31
0
0
LINE
8
0
62
0
10
449.55396
20
845.2897
30
0
11
457.55396
21
845.2897
31
0
0
LINE
8
0
62
0
10
457.55396
20
845.2897
30
0
11
451.55396
21
849.2897
31
0
0
LINE
8
0
62
0
10
451.55396
20
849.2897
30
0
11
457.55396
21
849.2897
31
0
0
LINE
8
0
62
0
10
457.55396
20
849.2897
30
0
11
457.55396
21
853.2897
31
0
0
LINE
8
0
62
0
10
457.55396
20
853.2897
30
0
11
449.55396
21
853.2897
31
0
0
LINE
8
0
62
0
10
466.35394
20
845.2897
30
0
11
458.35394
21
849.2897
31
0
0
LINE
8
0
62
0
10
458.35394
20
849.2897
30
0
11
458.35394
21
853.2897
31
0
0
LINE
8
0
62
0
10
458.35394
20
853.2897
30
0
11
466.35394
21
853.2897
31
0
0
LINE
8
0
62
0
10
466.35394
20
853.2897
30
0
11
466.35394
21
849.2897
31
0
0
LINE
8
0
62
0
10
466.35394
20
849.2897
30
0
11
458.35394
21
849.2897
31
0
0
LINE
8
0
62
0
10
558.3547
20
766.13416
30
0
11
600.31146
21
802.4683
31
0
0
LINE
8
0
62
1
10
558.3547
20
766.13416
30
0
11
629.60474
21
779.1149
31
0
0
LINE
8
0
62
0
10
558.3547
20
766.13416
30
0
11
578.0244
21
759.18506
31
0
0
LINE
8
0
62
0
10
578.0244
20
759.18506
30
0
11
613.6495
21
765.6754
31
0
0
LINE
8
0
62
0
10
613.6495
20
765.6754
30
0
11
629.60474
21
779.1149
31
0
0
LINE
8
0
62
1
10
629.6029
20
779.1164
30
0
11
600.31146
21
802.4683
31
0
0
LINE
8
0
62
1
10
629.6029
20
779.1164
30
0
11
636.83185
21
834.9418
31
0
0
LINE
8
0
62
0
10
629.6029
20
779.1164
30
0
11
641.60645
21
791.7524
31
0
0
LINE
8
0
62
0
10
641.60645
20
791.7524
30
0
11
645.22095
21
819.66504
31
0
0
LINE
8
0
62
0
10
645.22095
20
819.66504
30
0
11
636.83185
21
834.9418
31
0
0
LINE
8
0
62
1
10
636.8346
20
834.9442
30
0
11
600.31146
21
802.4683
31
0
0
LINE
8
0
62
1
10
636.8346
20
834.9442
30
0
11
547.5653
21
819.7476
31
0
0
LINE
8
0
62
0
10
636.8346
20
834.9442
30
0
11
612.7631
21
841.4496
31
0
0
LINE
8
0
62
0
10
612.7631
20
841.4496
30
0
11
568.1284
21
833.85126
31
0
0
LINE
8
0
62
0
10
568.1284
20
833.85126
30
0
11
547.5653
21
819.7476
31
0
0
LINE
8
0
62
1
10
600.31146
20
802.4683
30
0
11
547.5653
21
819.7476
31
0
0
LINE
8
0
62
0
10
547.5653
20
819.7476
30
0
11
562.03455
21
804.4847
31
0
0
LINE
8
0
62
0
10
600.31146
20
802.4683
30
0
11
562.03455
21
804.4847
31
0
0
LINE
8
0
62
0
10
539.5653
20
844.9442
30
0
11
547.5653
21
844.9442
31
0
0
LINE
8
0
62
0
10
547.5653
20
844.9442
30
0
11
541.5653
21
848.9442
31
0
0
LINE
8
0
62
0
10
541.5653
20
848.9442
30
0
11
547.5653
21
848.9442
31
0
0
LINE
8
0
62
0
10
547.5653
20
848.9442
30
0
11
547.5653
21
852.9442
31
0
0
LINE
8
0
62
0
10
547.5653
20
852.9442
30
0
11
539.5653
21
852.9442
31
0
0
LINE
8
0
62
0
10
548.3653
20
844.9442
30
0
11
556.3653
21
844.9442
31
0
0
LINE
8
0
62
0
10
556.3653
20
844.9442
30
0
11
548.3653
21
852.9442
31
0
0
LINE
8
0
62
0
10
766.3791
20
766.13416
30
0
11
754.8089
21
873.13025
31
0
0
LINE
8
0
62
1
10
766.3791
20
766.13416
30
0
11
791.1868
21
863.6342
31
0
0
LINE
8
0
62
0
10
766.3791
20
766.13416
30
0
11
782.75977
21
787.9193
31
0
0
LINE
8
0
62
0
10
782.75977
20
787.9193
30
0
11
795.1636
21
836.6694
31
0
0
LINE
8
0
62
0
10
795.1636
20
836.6694
30
0
11
791.1868
21
863.6342
31
0
0
LINE
8
0
62
1
10
791.1912
20
863.63306
30
0
11
754.8089
21
873.13025
31
0
0
LINE
8
0
62
1
10
791.1912
20
863.63306
30
0
11
780.5113
21
984.8671
31
0
0
LINE
8
0
62
0
10
791.1912
20
863.63306
30
0
11
799.08887
21
894.87256
31
0
0
LINE
8
0
62
0
10
799.08887
20
894.87256
30
0
11
793.7489
21
955.48956
31
0
0
LINE
8
0
62
0
10
793.7489
20
955.48956
30
0
11
780.5113
21
984.8671
31
0
0
LINE
8
0
62
1
10
780.5122
20
984.8711
30
0
11
754.8089
21
873.13025
31
0
0
LINE
8
0
62
1
10
780.5122
20
984.8711
30
0
11
676.83466
21
798.94574
31
0
0
LINE
8
0
62
0
10
780.5122
20
984.8711
30
0
11
744.9293
21
943.77844
31
0
0
LINE
8
0
62
0
10
744.9293
20
943.77844
30
0
11
693.0905
21
850.81573
31
0
0
LINE
8
0
62
0
10
693.0905
20
850.81573
30
0
11
676.83466
21
798.94574
31
0
0
LINE
8
0
62
1
10
754.8089
20
873.13025
30
0
11
676.83466
21
798.94574
31
0
0
LINE
8
0
62
0
10
676.83466
20
798.94574
30
0
11
709.71936
21
816.42944
31
0
0
LINE
8
0
62
0
10
754.8089
20
873.13025
30
0
11
709.71936
21
816.42944
31
0
0
LINE
8
0
62
0
10
668.83466
20
994.8711
30
0
11
676.83466
21
994.8711
31
0
0
LINE
8
0
62
0
10
676.83466
20
994.8711
30
0
11
670.83466
21
998.8711
31
0
0
LINE
8
0
62
0
10
670.83466
20
998.8711
30
0
11
676.83466
21
998.8711
31
0
0
LINE
8
0
62
0
10
676.83466
20
998.8711
30
0
11
676.83466
21
1002.8711
31
0
0
LINE
8
0
62
0
10
676.83466
20
1002.8711
30
0
11
668.83466
21
1002.8711
31
0
0
LINE
8
0
62
0
10
677.63464
20
994.8711
30
0
11
685.63464
21
1002.8711
31
0
0
LINE
8
0
62
0
10
685.63464
20
1002.8711
30
0
11
677.63464
21
1002.8711
31
0
0
LINE
8
0
62
0
10
677.63464
20
1002.8711
30
0
11
685.63464
21
994.8711
31
0
0
LINE
8
0
62
0
10
685.63464
20
994.8711
30
0
11
677.63464
21
994.8711
31
0
0
LINE
8
0
62
0
10
831.1913
20
826.42334
30
0
11
845.99445
21
827.6483
31
0
0
LINE
8
0
62
1
10
831.1913
20
826.42334
30
0
11
839.5567
21
766.1348
31
0
0
LINE
8
0
62
0
10
831.1913
20
826.42334
30
0
11
823.0761
21
809.935
31
0
0
LINE
8
0
62
0
10
823.0761
20
809.935
30
0
11
827.2588
21
779.7908
31
0
0
LINE
8
0
62
0
10
827.2588
20
779.7908
30
0
11
839.5567
21
766.1348
31
0
0
LINE
8
0
62
1
10
839.5566
20
766.13416
30
0
11
845.99445
21
827.6483
31
0
0
LINE
8
0
62
1
10
839.5566
20
766.13416
30
0
11
877.541
21
881.7583
31
0
0
LINE
8
0
62
0
10
839.5566
20
766.13416
30
0
11
859.1313
21
791.7292
31
0
0
LINE
8
0
62
0
10
859.1313
20
791.7292
30
0
11
878.1235
21
849.54126
31
0
0
LINE
8
0
62
0
10
878.1235
20
849.54126
30
0
11
877.541
21
881.7583
31
0
0
LINE
8
0
62
1
10
877.5407
20
881.7578
30
0
11
845.99445
21
827.6483
31
0
0
LINE
8
0
62
1
10
877.5407
20
881.7578
30
0
11
833.78876
21
836.114
31
0
0
LINE
8
0
62
0
10
877.5407
20
881.7578
30
0
11
859.1554
21
877.4855
31
0
0
LINE
8
0
62
0
10
859.1554
20
877.4855
30
0
11
837.2794
21
854.66364
31
0
0
LINE
8
0
62
0
10
837.2794
20
854.66364
30
0
11
833.78876
21
836.114
31
0
0
LINE
8
0
62
1
10
845.99445
20
827.6483
30
0
11
833.78876
21
836.114
31
0
0
LINE
8
0
62
0
10
833.78876
20
836.114
30
0
11
832.1582
21
825.0751
31
0
0
LINE
8
0
62
0
10
845.99445
20
827.6483
30
0
11
832.1582
21
825.0751
31
0
0
LINE
8
0
62
0
10
823.1913
20
891.7583
30
0
11
831.1913
21
891.7583
31
0
0
LINE
8
0
62
0
10
831.1913
20
891.7583
30
0
11
825.1913
21
895.7583
31
0
0
LINE
8
0
62
0
10
825.1913
20
895.7583
30
0
11
831.1913
21
895.7583
31
0
0
LINE
8
0
62
0
10
831.1913
20
895.7583
30
0
11
831.1913
21
899.7583
31
0
0
LINE
8
0
62
0
10
831.1913
20
899.7583
30
0
11
823.1913
21
899.7583
31
0
0
LINE
8
0
62
0
10
831.9913
20
899.7583
30
0
11
839.9913
21
895.7583
31
0
0
LINE
8
0
62
0
10
839.9913
20
895.7583
30
0
11
839.9913
21
891.7583
31
0
0
LINE
8
0
62
0
10
839.9913
20
891.7583
30
0
11
831.9913
21
891.7583
31
0
0
LINE
8
0
62
0
10
831.9913
20
891.7583
30
0
11
831.9913
21
895.7583
31
0
0
LINE
8
0
62
0
10
831.9913
20
895.7583
30
0
11
839.9913
21
895.7583
31
0
0
LINE
8
0
62
0
10
36.919914
20
1024.8711
30
0
11
22.657484
21
1061.973
31
0
0
LINE
8
0
62
1
10
36.919914
20
1024.8711
30
0
11
45.573776
21
1078.525
31
0
0
LINE
8
0
62
0
10
36.919914
20
1024.8711
30
0
11
49.22406
21
1036.649
31
0
0
LINE
8
0
62
0
10
49.22406
20
1036.649
30
0
11
53.550987
21
1063.476
31
0
0
LINE
8
0
62
0
10
53.550987
20
1063.476
30
0
11
45.573776
21
1078.525
31
0
0
LINE
8
0
62
1
10
45.572433
20
1078.524
30
0
11
22.657484
21
1061.973
31
0
0
LINE
8
0
62
1
10
45.572433
20
1078.524
30
0
11
7.2302723
21
1092.1229
31
0
0
LINE
8
0
62
0
10
45.572433
20
1078.524
30
0
11
39.39759
21
1091.5403
31
0
0
LINE
8
0
62
0
10
39.39759
20
1091.5403
30
0
11
20.226511
21
1098.3397
31
0
0
LINE
8
0
62
0
10
20.226511
20
1098.3397
30
0
11
7.2302723
21
1092.1229
31
0
0
LINE
8
0
62
1
10
7.2292385
20
1092.125
30
0
11
22.657484
21
1061.973
31
0
0
LINE
8
0
62
1
10
7.2292385
20
1092.125
30
0
11
0.0
21
1029.3131
31
0
0
LINE
8
0
62
0
10
7.2292385
20
1092.125
30
0
11
-4.8265495
21
1077.6016
31
0
0
LINE
8
0
62
0
10
-4.8265495
20
1077.6016
30
0
11
-8.441168
21
1046.1957
31
0
0
LINE
8
0
62
0
10
-8.441168
20
1046.1957
30
0
11
0.0
21
1029.3131
31
0
0
LINE
8
0
62
1
10
22.657484
20
1061.973
30
0
11
0.0
21
1029.3131
31
0
0
LINE
8
0
62
0
10
0.0
20
1029.3131
30
0
11
15.769054
21
1034.5
31
0
0
LINE
8
0
62
0
10
22.657484
20
1061.973
30
0
11
15.769054
21
1034.5
31
0
0
LINE
8
0
62
0
10
-2.0
20
1110.125
30
0
11
-2.0
21
1102.125
31
0
0
LINE
8
0
62
0
10
-2.0
20
1102.125
30
0
11
-8.0
21
1106.125
31
0
0
LINE
8
0
62
0
10
-8.0
20
1106.125
30
0
11
0.0
21
1106.125
31
0
0
LINE
8
0
62
0
10
8.799999
20
1102.125
30
0
11
0.79999924
21
1102.125
31
0
0
LINE
8
0
62
0
10
0.79999924
20
1102.125
30
0
11
0.79999924
21
1110.125
31
0
0
LINE
8
0
62
0
10
0.79999924
20
1110.125
30
0
11
8.799999
21
1110.125
31
0
0
LINE
8
0
62
0
10
8.799999
20
1110.125
30
0
11
8.799999
21
1102.125
31
0
0
LINE
8
0
62
0
10
8.799999
20
1102.125
30
0
11
0.79999924
21
1110.125
31
0
0
LINE
8
0
62
0
10
167.62941
20
1080.7787
30
0
11
132.62363
21
1053.7788
31
0
0
LINE
8
0
62
1
10
167.62941
20
1080.7787
30
0
11
126.9563
21
1081.6442
31
0
0
LINE
8
0
62
0
10
167.62941
20
1080.7787
30
0
11
157.67818
21
1091.1962
31
0
0
LINE
8
0
62
0
10
157.67818
20
1091.1962
30
0
11
137.34161
21
1091.6289
31
0
0
LINE
8
0
62
0
10
137.34161
20
1091.6289
30
0
11
126.9563
21
1081.6442
31
0
0
LINE
8
0
62
1
10
126.953384
20
1081.6584
30
0
11
132.62363
21
1053.7788
31
0
0
LINE
8
0
62
1
10
126.953384
20
1081.6584
30
0
11
85.5752
21
1024.872
31
0
0
LINE
8
0
62
0
10
126.953384
20
1081.6584
30
0
11
108.24289
21
1073.5577
31
0
0
LINE
8
0
62
0
10
108.24289
20
1073.5577
30
0
11
87.5538
21
1045.1646
31
0
0
LINE
8
0
62
0
10
87.5538
20
1045.1646
30
0
11
85.5752
21
1024.872
31
0
0
LINE
8
0
62
1
10
85.57378
20
1024.8711
30
0
11
132.62363
21
1053.7788
31
0
0
LINE
8
0
62
1
10
85.57378
20
1024.8711
30
0
11
175.37515
21
1042.4775
31
0
0
LINE
8
0
62
0
10
85.57378
20
1024.8711
30
0
11
110.036125
21
1019.0105
31
0
0
LINE
8
0
62
0
10
110.036125
20
1019.0105
30
0
11
154.93681
21
1027.8137
31
0
0
LINE
8
0
62
0
10
154.93681
20
1027.8137
30
0
11
175.37515
21
1042.4775
31
0
0
LINE
8
0
62
1
10
132.62363
20
1053.7788
30
0
11
175.37515
21
1042.4775
31
0
0
LINE
8
0
62
0
10
175.37515
20
1042.4775
30
0
11
163.68007
21
1055.9126
31
0
0
LINE
8
0
62
0
10
132.62363
20
1053.7788
30
0
11
163.68007
21
1055.9126
31
0
0
LINE
8
0
62
0
10
83.57378
20
1099.6584
30
0
11
83.57378
21
1091.6584
31
0
0
LINE
8
0
62
0
10
83.57378
20
1091.6584
30
0
11
77.57378
21
1095.6584
31
0
0
LINE
8
0
62
0
10
77.57378
20
1095.6584
30
0
11
85.57378
21
1095.6584
31
0
0
LINE
8
0
62
0
10
86.37378
20
1093.6584
30
0
11
90.37378
21
1091.6584
31
0
0
LINE
8
0
62
0
10
90.37378
20
1091.6584
30
0
11
90.37378
21
1099.6584
31
0
0
LINE
8
0
62
0
10
278.32767
20
1024.8711
30
0
11
265.85474
21
1080.7743
31
0
0
LINE
8
0
62
1
10
278.32767
20
1024.8711
30
0
11
338.03928
21
1092.9481
31
0
0
LINE
8
0
62
0
10
278.32767
20
1024.8711
30
0
11
301.11383
21
1034.9978
31
0
0
LINE
8
0
62
0
10
301.11383
20
1034.9978
30
0
11
330.96964
21
1069.0363
31
0
0
LINE
8
0
62
0
10
330.96964
20
1069.0363
30
0
11
338.03928
21
1092.9481
31
0
0
LINE
8
0
62
1
10
338.04385
20
1092.9489
30
0
11
265.85474
21
1080.7743
31
0
0
LINE
8
0
62
1
10
338.04385
20
1092.9489
30
0
11
228.61081
21
1144.2605
31
0
0
LINE
8
0
62
0
10
338.04385
20
1092.9489
30
0
11
315.1875
21
1115.378
31
0
0
LINE
8
0
62
0
10
315.1875
20
1115.378
30
0
11
260.47098
21
1141.0338
31
0
0
LINE
8
0
62
0
10
260.47098
20
1141.0338
30
0
11
228.61081
21
1144.2605
31
0
0
LINE
8
0
62
1
10
228.61307
20
1144.2566
30
0
11
265.85474
21
1080.7743
31
0
0
LINE
8
0
62
1
10
228.61307
20
1144.2566
30
0
11
215.37515
21
1053.7081
31
0
0
LINE
8
0
62
0
10
228.61307
20
1144.2566
30
0
11
214.95602
21
1123.1323
31
0
0
LINE
8
0
62
0
10
214.95602
20
1123.1323
30
0
11
208.33708
21
1077.858
31
0
0
LINE
8
0
62
0
10
208.33708
20
1077.858
30
0
11
215.37515
21
1053.7081
31
0
0
LINE
8
0
62
1
10
265.85474
20
1080.7743
30
0
11
215.37515
21
1053.7081
31
0
0
LINE
8
0
62
0
10
215.37515
20
1053.7081
30
0
11
236.92743
21
1053.9172
31
0
0
LINE
8
0
62
0
10
265.85474
20
1080.7743
30
0
11
236.92743
21
1053.9172
31
0
0
LINE
8
0
62
0
10
213.37515
20
1162.2605
30
0
11
213.37515
21
1154.2605
31
0
0
LINE
8
0
62
0
10
213.37515
20
1154.2605
30
0
11
207.37515
21
1158.2605
31
0
0
LINE
8
0
62
0
10
207.37515
20
1158.2605
30
0
11
215.37515
21
1158.2605
31
0
0
LINE
8
0
62
0
10
216.17516
20
1154.2605
30
0
11
224.17516
21
1154.2605
31
0
0
LINE
8
0
62
0
10
224.17516
20
1154.2605
30
0
11
224.17516
21
1156.2605
31
0
0
LINE
8
0
62
0
10
224.17516
20
1156.2605
30
0
11
216.17516
21
1162.2605
31
0
0
LINE
8
0
62
0
10
216.17516
20
1162.2605
30
0
11
224.17516
21
1162.2605
31
0
0
LINE
8
0
62
0
10
458.45215
20
1024.8711
30
0
11
427.21057
21
1187.7842
31
0
0
LINE
8
0
62
1
10
458.45215
20
1024.8711
30
0
11
442.8752
21
1237.179
31
0
0
LINE
8
0
62
0
10
458.45215
20
1024.8711
30
0
11
465.59262
21
1078.7577
31
0
0
LINE
8
0
62
0
10
465.59262
20
1078.7577
30
0
11
457.80417
21
1184.9116
31
0
0
LINE
8
0
62
0
10
457.80417
20
1184.9116
30
0
11
442.8752
21
1237.179
31
0
0
LINE
8
0
62
1
10
442.8732
20
1237.1726
30
0
11
427.21057
21
1187.7842
31
0
0
LINE
8
0
62
1
10
442.8732
20
1237.1726
30
0
11
430.3002
21
1306.3014
31
0
0
LINE
8
0
62
0
10
442.8732
20
1237.1726
30
0
11
449.91418
21
1256.3071
31
0
0
LINE
8
0
62
0
10
449.91418
20
1256.3071
30
0
11
443.6277
21
1290.8715
31
0
0
LINE
8
0
62
0
10
443.6277
20
1290.8715
30
0
11
430.3002
21
1306.3014
31
0
0
LINE
8
0
62
1
10
430.3003
20
1306.3047
30
0
11
427.21057
21
1187.7842
31
0
0
LINE
8
0
62
1
10
430.3003
20
1306.3047
30
0
11
378.04382
21
1029.3561
31
0
0
LINE
8
0
62
0
10
430.3003
20
1306.3047
30
0
11
406.02484
21
1239.183
31
0
0
LINE
8
0
62
0
10
406.02484
20
1239.183
30
0
11
379.8966
21
1100.7086
31
0
0
LINE
8
0
62
0
10
379.8966
20
1100.7086
30
0
11
378.04382
21
1029.3561
31
0
0
LINE
8
0
62
1
10
427.21057
20
1187.7842
30
0
11
378.04382
21
1029.3561
31
0
0
LINE
8
0
62
0
10
378.04382
20
1029.3561
30
0
11
403.98373
21
1079.2025
31
0
0
LINE
8
0
62
0
10
427.21057
20
1187.7842
30
0
11
403.98373
21
1079.2025
31
0
0
LINE
8
0
62
0
10
376.04382
20
1324.3047
30
0
11
376.04382
21
1316.3047
31
0
0
LINE
8
0
62
0
10
376.04382
20
1316.3047
30
0
11
370.04382
21
1320.3047
31
0
0
LINE
8
0
62
0
10
370.04382
20
1320.3047
30
0
11
378.04382
21
1320.3047
31
0
0
LINE
8
0
62
0
10
378.84384
20
1316.3047
30
0
11
386.84384
21
1316.3047
31
0
0
LINE
8
0
62
0
10
386.84384
20
1316.3047
30
0
11
380.84384
21
1320.3047
31
0
0
LINE
8
0
62
0
10
380.84384
20
1320.3047
30
0
11
386.84384
21
1320.3047
31
0
0
LINE
8
0
62
0
10
386.84384
20
1320.3047
30
0
11
386.84384
21
1324.3047
31
0
0
LINE
8
0
62
0
10
386.84384
20
1324.3047
30
0
11
378.84384
21
1324.3047
31
0
0
LINE
8
0
62
0
10
619.3177
20
1083.6504
30
0
11
650.47156
21
1069.8939
31
0
0
LINE
8
0
62
1
10
619.3177
20
1083.6504
30
0
11
498.45218
21
1083.6504
31
0
0
LINE
8
0
62
0
10
619.3177
20
1083.6504
30
0
11
589.1013
21
1094.2548
31
0
0
LINE
8
0
62
0
10
589.1013
20
1094.2548
30
0
11
528.6686
21
1094.2548
31
0
0
LINE
8
0
62
0
10
528.6686
20
1094.2548
30
0
11
498.45218
21
1083.6504
31
0
0
LINE
8
0
62
1
10
498.45236
20
1083.6504
30
0
11
650.47156
21
1069.8939
31
0
0
LINE
8
0
62
1
10
498.45236
20
1083.6504
30
0
11
828.7294
21
1024.8711
31
0
0
LINE
8
0
62
0
10
498.45236
20
1083.6504
30
0
11
578.9755
21
1057.4589
31
0
0
LINE
8
0
62
0
10
578.9755
20
1057.4589
30
0
11
744.114
21
1028.0692
31
0
0
LINE
8
0
62
0
10
744.114
20
1028.0692
30
0
11
828.7294
21
1024.8711
31
0
0
LINE
8
0
62
1
10
828.72943
20
1024.8711
30
0
11
650.47156
21
1069.8939
31
0
0
LINE
8
0
62
1
10
828.72943
20
1024.8711
30
0
11
624.8398
21
1092.3169
31
0
0
LINE
8
0
62
0
10
828.72943
20
1024.8711
30
0
11
781.23486
21
1052.2461
31
0
0
LINE
8
0
62
0
10
781.23486
20
1052.2461
30
0
11
679.29004
21
1085.969
31
0
0
LINE
8
0
62
0
10
679.29004
20
1085.969
30
0
11
624.8398
21
1092.3169
31
0
0
LINE
8
0
62
1
10
650.47156
20
1069.8939
30
0
11
624.8398
21
1092.3169
31
0
0
LINE
8
0
62
0
10
624.8398
20
1092.3169
30
0
11
626.7996
21
1077.3159
31
0
0
LINE
8
0
62
0
10
650.47156
20
1069.8939
30
0
11
626.7996
21
1077.3159
31
0
0
LINE
8
0
62
0
10
496.45218
20
1110.3169
30
0
11
496.45218
21
1102.3169
31
0
0
LINE
8
0
62
0
10
496.45218
20
1102.3169
30
0
11
490.45218
21
1106.3169
31
0
0
LINE
8
0
62
0
10
490.45218
20
1106.3169
30
0
11
498.45218
21
1106.3169
31
0
0
LINE
8
0
62
0
10
505.2522
20
1110.3169
30
0
11
505.2522
21
1102.3169
31
0
0
LINE
8
0
62
0
10
505.2522
20
1102.3169
30
0
11
499.2522
21
1106.3169
31
0
0
LINE
8
0
62
0
10
499.2522
20
1106.3169
30
0
11
507.2522
21
1106.3169
31
0
0
ENDSEC
0
EOF
